<svg width="1220.000000" height="266.000000" viewBox="0 0 1220 266" fill="none" xmlns="http://www.w3.org/2000/svg" xmlns:xlink="http://www.w3.org/1999/xlink">
	<desc>
			Created with Pixso.
	</desc>
	<defs>
		<filter id="filter_0_249_dd" x="0.000000" y="0.000000" width="1220.000000" height="266.000000" filterUnits="userSpaceOnUse" color-interpolation-filters="sRGB">
			<feFlood flood-opacity="0" result="BackgroundImageFix"/>
			<feColorMatrix in="SourceAlpha" type="matrix" values="0 0 0 0 0 0 0 0 0 0 0 0 0 0 0 0 0 0 127 0" result="hardAlpha"/>
			<feOffset dx="0" dy="4"/>
			<feGaussianBlur stdDeviation="6.66667"/>
			<feComposite in2="hardAlpha" operator="out" k2="-1" k3="1"/>
			<feColorMatrix type="matrix" values="0 0 0 0 0 0 0 0 0 0.2 0 0 0 0 0.52941 0 0 0 0.2 0"/>
			<feBlend mode="normal" in2="BackgroundImageFix" result="effect_dropShadow_1"/>
			<feBlend mode="normal" in="SourceGraphic" in2="effect_dropShadow_1" result="shape"/>
		</filter>
	</defs>
	<g filter="url(#filter_0_249_dd)">
		<rect id="Rectangle 12" x="20.000000" y="16.000000" rx="5.000000" width="1180.000000" height="226.000000" fill="#FFFFFF" fill-opacity="1.000000"/>
	</g>
	<rect id="Rectangle 13" x="100.500000" y="80.500000" rx="5.000000" width="219.000000" height="38.000000" fill="#FFFFFF" fill-opacity="1.000000"/>
	<rect id="Rectangle 13" x="100.500000" y="80.500000" rx="5.000000" width="219.000000" height="38.000000" stroke="#CCCCCC" stroke-opacity="1.000000" stroke-width="1.000000"/>
	<rect id="Rectangle 14" x="362.500000" y="80.500000" rx="5.000000" width="219.000000" height="38.000000" fill="#FFFFFF" fill-opacity="1.000000"/>
	<rect id="Rectangle 14" x="362.500000" y="80.500000" rx="5.000000" width="219.000000" height="38.000000" stroke="#CCCCCC" stroke-opacity="1.000000" stroke-width="1.000000"/>
	<rect id="Rectangle 15" x="638.500000" y="80.500000" rx="5.000000" width="219.000000" height="38.000000" fill="#FFFFFF" fill-opacity="1.000000"/>
	<rect id="Rectangle 15" x="638.500000" y="80.500000" rx="5.000000" width="219.000000" height="38.000000" stroke="#CCCCCC" stroke-opacity="1.000000" stroke-width="1.000000"/>
	<rect id="Rectangle 16" x="927.000000" y="95.000000" rx="5.000000" width="155.000000" height="10.000000" fill="#E3E3E3" fill-opacity="1.000000"/>
	<rect id="Rectangle 17" x="927.000000" y="95.000000" rx="5.000000" width="65.000000" height="10.000000" fill="#4285F4" fill-opacity="1.000000"/>
	<path id="Квартира" d="M121.069 100.505L118.827 100.505L118.827 105L117.819 105L117.819 95.2007L118.827 95.2007L118.827 99.5962L121.069 99.5962L124.385 95.2007L125.506 95.2007L121.866 99.9585L125.714 105L124.525 105L121.069 100.505ZM131.96 101.192Q133.458 101.541 133.458 102.997Q133.458 103.964 132.743 104.484Q132.029 105 130.617 105L127.271 105L127.271 97.6377L130.518 97.6377Q131.779 97.6377 132.49 98.1265Q133.205 98.6152 133.205 99.5244Q133.205 100.129 132.877 100.557Q132.548 100.98 131.96 101.192ZM128.235 100.912L130.446 100.912Q131.301 100.912 131.755 100.591Q132.213 100.27 132.213 99.6509Q132.213 99.0356 131.755 98.728Q131.301 98.4204 130.446 98.4204L128.235 98.4204L128.235 100.912ZM130.573 104.217Q131.526 104.217 132.002 103.91Q132.477 103.599 132.477 102.942Q132.477 102.283 132.043 101.968Q131.608 101.654 130.672 101.654L128.235 101.654L128.235 104.217L130.573 104.217ZM138.316 97.5796Q139.758 97.5796 140.527 98.3008Q141.3 99.022 141.3 100.437L141.3 105L140.346 105L140.346 103.852Q140.011 104.426 139.358 104.747Q138.709 105.068 137.813 105.068Q136.579 105.068 135.851 104.48Q135.123 103.893 135.123 102.929Q135.123 101.989 135.804 101.415Q136.484 100.84 137.967 100.84L140.305 100.84L140.305 100.393Q140.305 99.4424 139.772 98.9468Q139.242 98.4478 138.217 98.4478Q137.519 98.4478 136.873 98.6802Q136.231 98.9092 135.769 99.3159L135.322 98.5742Q135.879 98.0991 136.661 97.8394Q137.448 97.5796 138.316 97.5796ZM137.967 104.286Q138.808 104.286 139.41 103.903Q140.011 103.517 140.305 102.789L140.305 101.585L137.994 101.585Q136.104 101.585 136.104 102.901Q136.104 103.544 136.593 103.917Q137.085 104.286 137.967 104.286ZM147.739 97.5796Q148.775 97.5796 149.612 98.0513Q150.453 98.5195 150.928 99.374Q151.406 100.225 151.406 101.319Q151.406 102.423 150.928 103.277Q150.453 104.132 149.619 104.6Q148.788 105.068 147.739 105.068Q146.84 105.068 146.119 104.699Q145.398 104.327 144.936 103.612L144.936 107.717L143.945 107.717L143.945 97.6377L144.895 97.6377L144.895 99.0903Q145.343 98.3623 146.078 97.9727Q146.813 97.5796 147.739 97.5796ZM147.667 104.187Q148.436 104.187 149.065 103.831Q149.697 103.476 150.053 102.819Q150.412 102.16 150.412 101.319Q150.412 100.478 150.053 99.8286Q149.697 99.1758 149.065 98.8135Q148.436 98.4478 147.667 98.4478Q146.884 98.4478 146.259 98.8135Q145.637 99.1758 145.278 99.8286Q144.923 100.478 144.923 101.319Q144.923 102.16 145.278 102.819Q145.637 103.476 146.259 103.831Q146.884 104.187 147.667 104.187ZM158.447 98.5195L155.662 98.5195L155.662 105L154.667 105L154.667 98.5195L151.881 98.5195L151.881 97.6377L158.447 97.6377L158.447 98.5195ZM159.891 97.6377L160.886 97.6377L160.886 103.489L165.797 97.6377L166.679 97.6377L166.679 105L165.684 105L165.684 99.1484L160.787 105L159.891 105L159.891 97.6377ZM173.317 97.5796Q174.353 97.5796 175.19 98.0513Q176.031 98.5195 176.506 99.374Q176.984 100.225 176.984 101.319Q176.984 102.423 176.506 103.277Q176.031 104.132 175.197 104.6Q174.366 105.068 173.317 105.068Q172.418 105.068 171.697 104.699Q170.976 104.327 170.514 103.612L170.514 107.717L169.523 107.717L169.523 97.6377L170.473 97.6377L170.473 99.0903Q170.921 98.3623 171.656 97.9727Q172.391 97.5796 173.317 97.5796ZM173.245 104.187Q174.014 104.187 174.643 103.831Q175.275 103.476 175.631 102.819Q175.99 102.16 175.99 101.319Q175.99 100.478 175.631 99.8286Q175.275 99.1758 174.643 98.8135Q174.014 98.4478 173.245 98.4478Q172.462 98.4478 171.837 98.8135Q171.215 99.1758 170.856 99.8286Q170.501 100.478 170.501 101.319Q170.501 102.16 170.856 102.819Q171.215 103.476 171.837 103.831Q172.462 104.187 173.245 104.187ZM181.618 97.5796Q183.06 97.5796 183.829 98.3008Q184.602 99.022 184.602 100.437L184.602 105L183.648 105L183.648 103.852Q183.313 104.426 182.66 104.747Q182.011 105.068 181.115 105.068Q179.881 105.068 179.153 104.48Q178.425 103.893 178.425 102.929Q178.425 101.989 179.106 101.415Q179.786 100.84 181.269 100.84L183.607 100.84L183.607 100.393Q183.607 99.4424 183.074 98.9468Q182.544 98.4478 181.519 98.4478Q180.821 98.4478 180.175 98.6802Q179.533 98.9092 179.071 99.3159L178.624 98.5742Q179.181 98.0991 179.963 97.8394Q180.75 97.5796 181.618 97.5796ZM181.269 104.286Q182.11 104.286 182.712 103.903Q183.313 103.517 183.607 102.789L183.607 101.585L181.296 101.585Q179.406 101.585 179.406 102.901Q179.406 103.544 179.895 103.917Q180.387 104.286 181.269 104.286Z" fill="#000000" fill-opacity="1.000000" fill-rule="evenodd"/>
	<path id="Косметичекий" d="M381.264 100.505L379.022 100.505L379.022 105L378.014 105L378.014 95.2007L379.022 95.2007L379.022 99.5962L381.264 99.5962L384.58 95.2007L385.701 95.2007L382.061 99.9585L385.909 105L384.72 105L381.264 100.505ZM390.221 105.068Q389.158 105.068 388.304 104.586Q387.449 104.104 386.957 103.25Q386.468 102.396 386.468 101.319Q386.468 100.239 386.957 99.3877Q387.449 98.5332 388.304 98.0581Q389.158 97.5796 390.221 97.5796Q391.284 97.5796 392.139 98.0581Q392.993 98.5332 393.475 99.3877Q393.96 100.239 393.96 101.319Q393.96 102.396 393.475 103.25Q392.993 104.104 392.139 104.586Q391.284 105.068 390.221 105.068ZM390.221 104.187Q391.007 104.187 391.629 103.831Q392.251 103.476 392.6 102.819Q392.952 102.16 392.952 101.319Q392.952 100.478 392.6 99.8218Q392.251 99.1621 391.629 98.8066Q391.007 98.4478 390.221 98.4478Q389.438 98.4478 388.813 98.8066Q388.191 99.1621 387.832 99.8218Q387.477 100.478 387.477 101.319Q387.477 102.16 387.832 102.819Q388.191 103.476 388.813 103.831Q389.438 104.187 390.221 104.187ZM399.166 105.068Q398.076 105.068 397.215 104.593Q396.353 104.118 395.861 103.257Q395.372 102.396 395.372 101.319Q395.372 100.239 395.861 99.3877Q396.353 98.5332 397.215 98.0581Q398.076 97.5796 399.166 97.5796Q400.12 97.5796 400.868 97.9521Q401.617 98.3213 402.051 99.0356L401.309 99.5415Q400.947 98.9946 400.386 98.7212Q399.826 98.4478 399.166 98.4478Q398.37 98.4478 397.731 98.8066Q397.095 99.1621 396.736 99.8218Q396.381 100.478 396.381 101.319Q396.381 102.173 396.736 102.826Q397.095 103.476 397.731 103.831Q398.37 104.187 399.166 104.187Q399.826 104.187 400.386 103.923Q400.947 103.657 401.309 103.11L402.051 103.612Q401.617 104.327 400.862 104.699Q400.106 105.068 399.166 105.068ZM412.203 97.6377L412.203 105L411.293 105L411.293 99.1758L408.309 104.104L407.862 104.104L404.881 99.1621L404.881 105L403.972 105L403.972 97.6377L404.98 97.6377L408.101 102.942L411.28 97.6377L412.203 97.6377ZM421.468 101.626L415.309 101.626Q415.394 102.775 416.191 103.482Q416.991 104.187 418.207 104.187Q418.894 104.187 419.469 103.944Q420.043 103.698 420.463 103.223L421.02 103.865Q420.532 104.453 419.797 104.761Q419.062 105.068 418.18 105.068Q417.045 105.068 416.17 104.586Q415.295 104.104 414.803 103.25Q414.314 102.396 414.314 101.319Q414.314 100.239 414.783 99.3877Q415.254 98.5332 416.071 98.0581Q416.891 97.5796 417.913 97.5796Q418.935 97.5796 419.745 98.0581Q420.559 98.5332 421.02 99.3809Q421.485 100.225 421.485 101.319L421.468 101.626ZM417.913 98.4341Q416.85 98.4341 416.129 99.1143Q415.408 99.791 415.309 100.885L420.532 100.885Q420.432 99.791 419.711 99.1143Q418.99 98.4341 417.913 98.4341ZM428.54 98.5195L425.755 98.5195L425.755 105L424.76 105L424.76 98.5195L421.974 98.5195L421.974 97.6377L428.54 97.6377L428.54 98.5195ZM429.984 97.6377L430.979 97.6377L430.979 103.489L435.89 97.6377L436.772 97.6377L436.772 105L435.777 105L435.777 99.1484L430.88 105L429.984 105L429.984 97.6377ZM445.174 97.6377L445.174 105L444.179 105L444.179 101.934Q442.904 102.495 441.674 102.495Q440.344 102.495 439.602 101.886Q438.861 101.274 438.861 100.058L438.861 97.6377L439.852 97.6377L439.852 100.003Q439.852 100.827 440.385 101.254Q440.918 101.681 441.855 101.681Q442.89 101.681 444.179 101.138L444.179 97.6377L445.174 97.6377ZM454.438 101.626L448.279 101.626Q448.364 102.775 449.161 103.482Q449.961 104.187 451.177 104.187Q451.864 104.187 452.439 103.944Q453.013 103.698 453.433 103.223L453.99 103.865Q453.502 104.453 452.767 104.761Q452.032 105.068 451.15 105.068Q450.015 105.068 449.14 104.586Q448.265 104.104 447.773 103.25Q447.284 102.396 447.284 101.319Q447.284 100.239 447.753 99.3877Q448.224 98.5332 449.041 98.0581Q449.861 97.5796 450.883 97.5796Q451.905 97.5796 452.715 98.0581Q453.529 98.5332 453.99 99.3809Q454.455 100.225 454.455 101.319L454.438 101.626ZM450.883 98.4341Q449.82 98.4341 449.099 99.1143Q448.378 99.791 448.279 100.885L453.502 100.885Q453.402 99.791 452.681 99.1143Q451.96 98.4341 450.883 98.4341ZM459.327 101.726L457.649 101.726L457.649 105L456.654 105L456.654 97.6377L457.649 97.6377L457.649 100.871L459.341 100.871L461.931 97.6377L463.008 97.6377L460.11 101.206L463.22 105L462.044 105L459.327 101.726ZM464.788 97.6377L465.783 97.6377L465.783 103.489L470.694 97.6377L471.576 97.6377L471.576 105L470.581 105L470.581 99.1484L465.684 105L464.788 105L464.788 97.6377ZM474.42 97.6377L475.415 97.6377L475.415 103.489L480.326 97.6377L481.208 97.6377L481.208 105L480.214 105L480.214 99.1484L475.316 105L474.42 105L474.42 97.6377ZM477.766 96.5713Q476.813 96.5713 476.252 96.0962Q475.692 95.6211 475.678 94.7529L476.392 94.7529Q476.406 95.2998 476.785 95.6279Q477.165 95.9561 477.766 95.9561Q478.368 95.9561 478.751 95.6279Q479.137 95.2998 479.151 94.7529L479.865 94.7529Q479.851 95.6211 479.284 96.0962Q478.716 96.5713 477.766 96.5713Z" fill="#000000" fill-opacity="1.000000" fill-rule="evenodd"/>
	<path id="Новостройка" d="M664.103 95.2007L664.103 105L663.081 105L663.081 100.478L656.95 100.478L656.95 105L655.914 105L655.914 95.2007L656.95 95.2007L656.95 99.5688L663.081 99.5688L663.081 95.2007L664.103 95.2007ZM670.207 105.068Q669.144 105.068 668.29 104.586Q667.435 104.104 666.943 103.25Q666.454 102.396 666.454 101.319Q666.454 100.239 666.943 99.3877Q667.435 98.5332 668.29 98.0581Q669.144 97.5796 670.207 97.5796Q671.27 97.5796 672.125 98.0581Q672.979 98.5332 673.461 99.3877Q673.946 100.239 673.946 101.319Q673.946 102.396 673.461 103.25Q672.979 104.104 672.125 104.586Q671.27 105.068 670.207 105.068ZM670.207 104.187Q670.993 104.187 671.615 103.831Q672.237 103.476 672.586 102.819Q672.938 102.16 672.938 101.319Q672.938 100.478 672.586 99.8218Q672.237 99.1621 671.615 98.8066Q670.993 98.4478 670.207 98.4478Q669.424 98.4478 668.799 98.8066Q668.177 99.1621 667.818 99.8218Q667.463 100.478 667.463 101.319Q667.463 102.16 667.818 102.819Q668.177 103.476 668.799 103.831Q669.424 104.187 670.207 104.187ZM680.766 101.192Q682.263 101.541 682.263 102.997Q682.263 103.964 681.548 104.484Q680.834 105 679.422 105L676.076 105L676.076 97.6377L679.323 97.6377Q680.584 97.6377 681.295 98.1265Q682.01 98.6152 682.01 99.5244Q682.01 100.129 681.682 100.557Q681.353 100.98 680.766 101.192ZM677.04 100.912L679.251 100.912Q680.106 100.912 680.56 100.591Q681.018 100.27 681.018 99.6509Q681.018 99.0356 680.56 98.728Q680.106 98.4204 679.251 98.4204L677.04 98.4204L677.04 100.912ZM679.378 104.217Q680.331 104.217 680.807 103.91Q681.282 103.599 681.282 102.942Q681.282 102.283 680.848 101.968Q680.413 101.654 679.477 101.654L677.04 101.654L677.04 104.217L679.378 104.217ZM687.623 105.068Q686.56 105.068 685.706 104.586Q684.851 104.104 684.359 103.25Q683.87 102.396 683.87 101.319Q683.87 100.239 684.359 99.3877Q684.851 98.5332 685.706 98.0581Q686.56 97.5796 687.623 97.5796Q688.686 97.5796 689.541 98.0581Q690.395 98.5332 690.877 99.3877Q691.362 100.239 691.362 101.319Q691.362 102.396 690.877 103.25Q690.395 104.104 689.541 104.586Q688.686 105.068 687.623 105.068ZM687.623 104.187Q688.409 104.187 689.031 103.831Q689.653 103.476 690.002 102.819Q690.354 102.16 690.354 101.319Q690.354 100.478 690.002 99.8218Q689.653 99.1621 689.031 98.8066Q688.409 98.4478 687.623 98.4478Q686.84 98.4478 686.215 98.8066Q685.593 99.1621 685.234 99.8218Q684.879 100.478 684.879 101.319Q684.879 102.16 685.234 102.819Q685.593 103.476 686.215 103.831Q686.84 104.187 687.623 104.187ZM696.568 105.068Q695.478 105.068 694.617 104.593Q693.755 104.118 693.263 103.257Q692.774 102.396 692.774 101.319Q692.774 100.239 693.263 99.3877Q693.755 98.5332 694.617 98.0581Q695.478 97.5796 696.568 97.5796Q697.522 97.5796 698.27 97.9521Q699.019 98.3213 699.453 99.0356L698.711 99.5415Q698.349 98.9946 697.788 98.7212Q697.228 98.4478 696.568 98.4478Q695.772 98.4478 695.133 98.8066Q694.497 99.1621 694.138 99.8218Q693.783 100.478 693.783 101.319Q693.783 102.173 694.138 102.826Q694.497 103.476 695.133 103.831Q695.772 104.187 696.568 104.187Q697.228 104.187 697.788 103.923Q698.349 103.657 698.711 103.11L699.453 103.612Q699.019 104.327 698.263 104.699Q697.508 105.068 696.568 105.068ZM706.412 98.5195L703.627 98.5195L703.627 105L702.632 105L702.632 98.5195L699.846 98.5195L699.846 97.6377L706.412 97.6377L706.412 98.5195ZM711.65 97.5796Q712.686 97.5796 713.523 98.0513Q714.364 98.5195 714.839 99.374Q715.317 100.225 715.317 101.319Q715.317 102.423 714.839 103.277Q714.364 104.132 713.53 104.6Q712.699 105.068 711.65 105.068Q710.751 105.068 710.03 104.699Q709.309 104.327 708.847 103.612L708.847 107.717L707.856 107.717L707.856 97.6377L708.806 97.6377L708.806 99.0903Q709.254 98.3623 709.989 97.9727Q710.724 97.5796 711.65 97.5796ZM711.578 104.187Q712.347 104.187 712.976 103.831Q713.608 103.476 713.964 102.819Q714.323 102.16 714.323 101.319Q714.323 100.478 713.964 99.8286Q713.608 99.1758 712.976 98.8135Q712.347 98.4478 711.578 98.4478Q710.795 98.4478 710.17 98.8135Q709.548 99.1758 709.189 99.8286Q708.834 100.478 708.834 101.319Q708.834 102.16 709.189 102.819Q709.548 103.476 710.17 103.831Q710.795 104.187 711.578 104.187ZM720.495 105.068Q719.432 105.068 718.578 104.586Q717.723 104.104 717.231 103.25Q716.742 102.396 716.742 101.319Q716.742 100.239 717.231 99.3877Q717.723 98.5332 718.578 98.0581Q719.432 97.5796 720.495 97.5796Q721.558 97.5796 722.413 98.0581Q723.267 98.5332 723.749 99.3877Q724.234 100.239 724.234 101.319Q724.234 102.396 723.749 103.25Q723.267 104.104 722.413 104.586Q721.558 105.068 720.495 105.068ZM720.495 104.187Q721.281 104.187 721.903 103.831Q722.525 103.476 722.874 102.819Q723.226 102.16 723.226 101.319Q723.226 100.478 722.874 99.8218Q722.525 99.1621 721.903 98.8066Q721.281 98.4478 720.495 98.4478Q719.712 98.4478 719.087 98.8066Q718.465 99.1621 718.106 99.8218Q717.751 100.478 717.751 101.319Q717.751 102.16 718.106 102.819Q718.465 103.476 719.087 103.831Q719.712 104.187 720.495 104.187ZM726.364 97.6377L727.359 97.6377L727.359 103.489L732.27 97.6377L733.152 97.6377L733.152 105L732.157 105L732.157 99.1484L727.26 105L726.364 105L726.364 97.6377ZM729.71 96.5713Q728.757 96.5713 728.196 96.0962Q727.635 95.6211 727.622 94.7529L728.336 94.7529Q728.35 95.2998 728.729 95.6279Q729.109 95.9561 729.71 95.9561Q730.312 95.9561 730.695 95.6279Q731.081 95.2998 731.094 94.7529L731.809 94.7529Q731.795 95.6211 731.228 96.0962Q730.66 96.5713 729.71 96.5713ZM738.669 101.726L736.991 101.726L736.991 105L735.996 105L735.996 97.6377L736.991 97.6377L736.991 100.871L738.683 100.871L741.273 97.6377L742.35 97.6377L739.452 101.206L742.562 105L741.386 105L738.669 101.726ZM746.523 97.5796Q747.965 97.5796 748.734 98.3008Q749.507 99.022 749.507 100.437L749.507 105L748.553 105L748.553 103.852Q748.218 104.426 747.565 104.747Q746.916 105.068 746.02 105.068Q744.786 105.068 744.058 104.48Q743.33 103.893 743.33 102.929Q743.33 101.989 744.011 101.415Q744.691 100.84 746.174 100.84L748.512 100.84L748.512 100.393Q748.512 99.4424 747.979 98.9468Q747.449 98.4478 746.424 98.4478Q745.726 98.4478 745.08 98.6802Q744.438 98.9092 743.976 99.3159L743.529 98.5742Q744.086 98.0991 744.868 97.8394Q745.655 97.5796 746.523 97.5796ZM746.174 104.286Q747.015 104.286 747.617 103.903Q748.218 103.517 748.512 102.789L748.512 101.585L746.201 101.585Q744.311 101.585 744.311 102.901Q744.311 103.544 744.8 103.917Q745.292 104.286 746.174 104.286Z" fill="#000000" fill-opacity="1.000000" fill-rule="evenodd"/>
	<path id="25" d="M908.482 104.104L908.482 105L901.609 105L901.609 104.286L905.683 100.297Q906.452 99.5415 906.726 98.9878Q906.999 98.4341 906.999 97.8735Q906.999 97.0054 906.404 96.5234Q905.81 96.0415 904.702 96.0415Q902.979 96.0415 902.029 97.1318L901.315 96.5166Q901.889 95.8433 902.778 95.481Q903.667 95.1152 904.788 95.1152Q906.285 95.1152 907.16 95.8228Q908.035 96.5303 908.035 97.7607Q908.035 98.5195 907.696 99.2202Q907.361 99.9175 906.425 100.827L903.092 104.104L908.482 104.104ZM912.319 99.2168Q914.445 99.2168 915.419 99.9824Q916.393 100.745 916.393 102.115Q916.393 102.97 915.993 103.643Q915.594 104.313 914.794 104.699Q913.997 105.085 912.835 105.085Q911.786 105.085 910.839 104.744Q909.896 104.398 909.322 103.824L909.81 103.024Q910.303 103.53 911.099 103.845Q911.899 104.159 912.822 104.159Q914.038 104.159 914.705 103.616Q915.371 103.069 915.371 102.16Q915.371 101.151 914.619 100.632Q913.871 100.112 912.094 100.112L910.009 100.112L910.511 95.2007L915.874 95.2007L915.874 96.0962L911.393 96.0962L911.058 99.2168L912.319 99.2168Z" fill="#000000" fill-opacity="1.000000" fill-rule="evenodd"/>
	<path id="300" d="M1097.34 99.4014Q1098.88 99.4834 1099.69 100.232Q1100.49 100.98 1100.49 102.187Q1100.49 103.024 1100.09 103.677Q1099.68 104.327 1098.88 104.706Q1098.09 105.085 1096.94 105.085Q1095.87 105.085 1094.93 104.744Q1093.98 104.398 1093.41 103.824L1093.9 103.024Q1094.39 103.53 1095.2 103.845Q1096.02 104.159 1096.94 104.159Q1098.14 104.159 1098.8 103.636Q1099.46 103.11 1099.46 102.187Q1099.46 101.274 1098.8 100.758Q1098.14 100.239 1096.81 100.239L1096.11 100.239L1096.11 99.4971L1098.83 96.0962L1093.82 96.0962L1093.82 95.2007L1100.12 95.2007L1100.12 95.915L1097.34 99.4014ZM1105.81 105.085Q1104.68 105.085 1103.79 104.484Q1102.9 103.879 1102.4 102.754Q1101.91 101.626 1101.91 100.099Q1101.91 98.5742 1102.4 97.4463Q1102.9 96.3184 1103.79 95.7168Q1104.68 95.1152 1105.81 95.1152Q1106.95 95.1152 1107.84 95.7168Q1108.73 96.3184 1109.23 97.4463Q1109.74 98.5742 1109.74 100.099Q1109.74 101.626 1109.23 102.754Q1108.73 103.879 1107.84 104.484Q1106.95 105.085 1105.81 105.085ZM1105.81 104.159Q1106.67 104.159 1107.32 103.684Q1107.97 103.209 1108.33 102.3Q1108.7 101.387 1108.7 100.099Q1108.7 98.8135 1108.33 97.9043Q1107.97 96.9917 1107.32 96.5166Q1106.67 96.0415 1105.81 96.0415Q1104.96 96.0415 1104.31 96.5166Q1103.66 96.9917 1103.29 97.9043Q1102.93 98.8135 1102.93 100.099Q1102.93 101.387 1103.29 102.3Q1103.66 103.209 1104.31 103.684Q1104.96 104.159 1105.81 104.159ZM1115.08 105.085Q1113.95 105.085 1113.06 104.484Q1112.17 103.879 1111.67 102.754Q1111.18 101.626 1111.18 100.099Q1111.18 98.5742 1111.67 97.4463Q1112.17 96.3184 1113.06 95.7168Q1113.95 95.1152 1115.08 95.1152Q1116.22 95.1152 1117.11 95.7168Q1117.99 96.3184 1118.5 97.4463Q1119 98.5742 1119 100.099Q1119 101.626 1118.5 102.754Q1117.99 103.879 1117.11 104.484Q1116.22 105.085 1115.08 105.085ZM1115.08 104.159Q1115.94 104.159 1116.59 103.684Q1117.24 103.209 1117.6 102.3Q1117.97 101.387 1117.97 100.099Q1117.97 98.8135 1117.6 97.9043Q1117.24 96.9917 1116.59 96.5166Q1115.94 96.0415 1115.08 96.0415Q1114.23 96.0415 1113.58 96.5166Q1112.93 96.9917 1112.56 97.9043Q1112.2 98.8135 1112.2 100.099Q1112.2 101.387 1112.56 102.3Q1112.93 103.209 1113.58 103.684Q1114.23 104.159 1115.08 104.159Z" fill="#000000" fill-opacity="1.000000" fill-rule="evenodd"/>
	<path id="Что нужно отремонтировать" d="M107.957 54.9006L107.957 64L107.021 64L107.021 60.2295Q105.538 60.8674 104.148 60.8674Q102.549 60.8674 101.657 60.0867Q100.768 59.3059 100.768 57.9031L100.768 54.9006L101.717 54.9006L101.717 57.7983Q101.717 58.8521 102.377 59.4392Q103.041 60.0232 104.237 60.0232Q105.602 60.0232 107.021 59.3726L107.021 54.9006L107.957 54.9006ZM115.625 57.9824L113.039 57.9824L113.039 64L112.115 64L112.115 57.9824L109.528 57.9824L109.528 57.1636L115.625 57.1636L115.625 57.9824ZM119.472 64.0635Q118.485 64.0635 117.692 63.616Q116.898 63.1685 116.441 62.375Q115.987 61.5815 115.987 60.5818Q115.987 59.5789 116.441 58.7886Q116.898 57.9951 117.692 57.554Q118.485 57.1096 119.472 57.1096Q120.459 57.1096 121.253 57.554Q122.046 57.9951 122.494 58.7886Q122.944 59.5789 122.944 60.5818Q122.944 61.5815 122.494 62.375Q122.046 63.1685 121.253 63.616Q120.459 64.0635 119.472 64.0635ZM119.472 63.2446Q120.202 63.2446 120.78 62.9146Q121.358 62.5845 121.681 61.9751Q122.008 61.3625 122.008 60.5818Q122.008 59.801 121.681 59.1917Q121.358 58.5791 120.78 58.249Q120.202 57.9158 119.472 57.9158Q118.746 57.9158 118.165 58.249Q117.587 58.5791 117.254 59.1917Q116.924 59.801 116.924 60.5818Q116.924 61.3625 117.254 61.9751Q117.587 62.5845 118.165 62.9146Q118.746 63.2446 119.472 63.2446ZM128.328 57.1636L129.252 57.1636L129.252 60.1914L133.552 60.1914L133.552 57.1636L134.476 57.1636L134.476 64L133.552 64L133.552 60.9849L129.252 60.9849L129.252 64L128.328 64L128.328 57.1636ZM142.914 57.1636L139.496 64.8188Q139.08 65.7805 138.534 66.1836Q137.988 66.5867 137.22 66.5867Q136.725 66.5867 136.297 66.4312Q135.868 66.2756 135.557 65.9614L135.986 65.2727Q136.506 65.7932 137.233 65.7932Q137.7 65.7932 138.03 65.533Q138.363 65.2727 138.649 64.6506L138.95 63.9873L135.894 57.1636L136.855 57.1636L139.429 62.9717L142.003 57.1636L142.914 57.1636ZM149.959 60.9595L148.477 60.9595L148.477 64L147.553 64L147.553 60.9595L146.071 60.9595L143.98 64L142.875 64L145.332 60.4771L143.069 57.1636L144.069 57.1636L146.071 60.166L147.553 60.166L147.553 57.1636L148.477 57.1636L148.477 60.166L149.959 60.166L151.975 57.1636L152.974 57.1636L150.715 60.4897L153.171 64L152.063 64L149.959 60.9595ZM154.705 57.1636L155.629 57.1636L155.629 60.1914L159.929 60.1914L159.929 57.1636L160.853 57.1636L160.853 64L159.929 64L159.929 60.9849L155.629 60.9849L155.629 64L154.705 64L154.705 57.1636ZM166.298 64.0635Q165.311 64.0635 164.518 63.616Q163.724 63.1685 163.267 62.375Q162.813 61.5815 162.813 60.5818Q162.813 59.5789 163.267 58.7886Q163.724 57.9951 164.518 57.554Q165.311 57.1096 166.298 57.1096Q167.285 57.1096 168.079 57.554Q168.872 57.9951 169.32 58.7886Q169.77 59.5789 169.77 60.5818Q169.77 61.5815 169.32 62.375Q168.872 63.1685 168.079 63.616Q167.285 64.0635 166.298 64.0635ZM166.298 63.2446Q167.028 63.2446 167.606 62.9146Q168.184 62.5845 168.507 61.9751Q168.834 61.3625 168.834 60.5818Q168.834 59.801 168.507 59.1917Q168.184 58.5791 167.606 58.249Q167.028 57.9158 166.298 57.9158Q165.572 57.9158 164.991 58.249Q164.413 58.5791 164.08 59.1917Q163.75 59.801 163.75 60.5818Q163.75 61.3625 164.08 61.9751Q164.413 62.5845 164.991 62.9146Q165.572 63.2446 166.298 63.2446ZM177.972 64.0635Q176.985 64.0635 176.192 63.616Q175.398 63.1685 174.941 62.375Q174.487 61.5815 174.487 60.5818Q174.487 59.5789 174.941 58.7886Q175.398 57.9951 176.192 57.554Q176.985 57.1096 177.972 57.1096Q178.959 57.1096 179.753 57.554Q180.546 57.9951 180.994 58.7886Q181.444 59.5789 181.444 60.5818Q181.444 61.5815 180.994 62.375Q180.546 63.1685 179.753 63.616Q178.959 64.0635 177.972 64.0635ZM177.972 63.2446Q178.702 63.2446 179.28 62.9146Q179.858 62.5845 180.181 61.9751Q180.508 61.3625 180.508 60.5818Q180.508 59.801 180.181 59.1917Q179.858 58.5791 179.28 58.249Q178.702 57.9158 177.972 57.9158Q177.246 57.9158 176.665 58.249Q176.087 58.5791 175.754 59.1917Q175.424 59.801 175.424 60.5818Q175.424 61.3625 175.754 61.9751Q176.087 62.5845 176.665 62.9146Q177.246 63.2446 177.972 63.2446ZM187.97 57.9824L185.384 57.9824L185.384 64L184.46 64L184.46 57.9824L181.873 57.9824L181.873 57.1636L187.97 57.1636L187.97 57.9824ZM192.834 57.1096Q193.796 57.1096 194.573 57.5476Q195.354 57.9824 195.795 58.7759Q196.239 59.5662 196.239 60.5818Q196.239 61.6069 195.795 62.4004Q195.354 63.1938 194.58 63.6287Q193.808 64.0635 192.834 64.0635Q191.999 64.0635 191.33 63.7207Q190.66 63.3748 190.231 62.7114L190.231 66.5232L189.311 66.5232L189.311 57.1636L190.193 57.1636L190.193 58.5125Q190.609 57.8364 191.291 57.4746Q191.974 57.1096 192.834 57.1096ZM192.767 63.2446Q193.481 63.2446 194.065 62.9146Q194.653 62.5845 194.983 61.9751Q195.316 61.3625 195.316 60.5818Q195.316 59.801 194.983 59.198Q194.653 58.5918 194.065 58.2554Q193.481 57.9158 192.767 57.9158Q192.04 57.9158 191.46 58.2554Q190.882 58.5918 190.549 59.198Q190.219 59.801 190.219 60.5818Q190.219 61.3625 190.549 61.9751Q190.882 62.5845 191.46 62.9146Q192.04 63.2446 192.767 63.2446ZM204.205 60.8674L198.486 60.8674Q198.565 61.9338 199.305 62.5908Q200.048 63.2446 201.177 63.2446Q201.815 63.2446 202.349 63.0193Q202.882 62.7908 203.272 62.3496L203.79 62.9463Q203.336 63.4922 202.653 63.7778Q201.971 64.0635 201.152 64.0635Q200.098 64.0635 199.286 63.616Q198.473 63.1685 198.016 62.375Q197.562 61.5815 197.562 60.5818Q197.562 59.5789 197.997 58.7886Q198.435 57.9951 199.194 57.554Q199.956 57.1096 200.905 57.1096Q201.853 57.1096 202.606 57.554Q203.361 57.9951 203.79 58.7822Q204.221 59.5662 204.221 60.5818L204.205 60.8674ZM200.905 57.9031Q199.917 57.9031 199.248 58.5347Q198.578 59.1631 198.486 60.1787L203.336 60.1787Q203.244 59.1631 202.574 58.5347Q201.904 57.9031 200.905 57.9031ZM213.906 57.1636L213.906 64L213.061 64L213.061 58.5918L210.291 63.1685L209.875 63.1685L207.107 58.5791L207.107 64L206.263 64L206.263 57.1636L207.199 57.1636L210.097 62.0894L213.049 57.1636L213.906 57.1636ZM219.351 64.0635Q218.364 64.0635 217.571 63.616Q216.777 63.1685 216.32 62.375Q215.866 61.5815 215.866 60.5818Q215.866 59.5789 216.32 58.7886Q216.777 57.9951 217.571 57.554Q218.364 57.1096 219.351 57.1096Q220.338 57.1096 221.132 57.554Q221.925 57.9951 222.373 58.7886Q222.824 59.5789 222.824 60.5818Q222.824 61.5815 222.373 62.375Q221.925 63.1685 221.132 63.616Q220.338 64.0635 219.351 64.0635ZM219.351 63.2446Q220.081 63.2446 220.659 62.9146Q221.237 62.5845 221.56 61.9751Q221.887 61.3625 221.887 60.5818Q221.887 59.801 221.56 59.1917Q221.237 58.5791 220.659 58.249Q220.081 57.9158 219.351 57.9158Q218.625 57.9158 218.044 58.249Q217.466 58.5791 217.133 59.1917Q216.803 59.801 216.803 60.5818Q216.803 61.3625 217.133 61.9751Q217.466 62.5845 218.044 62.9146Q218.625 63.2446 219.351 63.2446ZM224.801 57.1636L225.725 57.1636L225.725 60.1914L230.025 60.1914L230.025 57.1636L230.949 57.1636L230.949 64L230.025 64L230.025 60.9849L225.725 60.9849L225.725 64L224.801 64L224.801 57.1636ZM238.384 57.9824L235.798 57.9824L235.798 64L234.874 64L234.874 57.9824L232.287 57.9824L232.287 57.1636L238.384 57.1636L238.384 57.9824ZM239.725 57.1636L240.649 57.1636L240.649 62.5972L245.209 57.1636L246.028 57.1636L246.028 64L245.105 64L245.105 58.5664L240.557 64L239.725 64L239.725 57.1636ZM252.192 57.1096Q253.154 57.1096 253.931 57.5476Q254.712 57.9824 255.153 58.7759Q255.597 59.5662 255.597 60.5818Q255.597 61.6069 255.153 62.4004Q254.712 63.1938 253.938 63.6287Q253.166 64.0635 252.192 64.0635Q251.357 64.0635 250.688 63.7207Q250.018 63.3748 249.589 62.7114L249.589 66.5232L248.669 66.5232L248.669 57.1636L249.551 57.1636L249.551 58.5125Q249.967 57.8364 250.649 57.4746Q251.332 57.1096 252.192 57.1096ZM252.125 63.2446Q252.839 63.2446 253.423 62.9146Q254.011 62.5845 254.341 61.9751Q254.674 61.3625 254.674 60.5818Q254.674 59.801 254.341 59.198Q254.011 58.5918 253.423 58.2554Q252.839 57.9158 252.125 57.9158Q251.398 57.9158 250.818 58.2554Q250.24 58.5918 249.907 59.198Q249.577 59.801 249.577 60.5818Q249.577 61.3625 249.907 61.9751Q250.24 62.5845 250.818 62.9146Q251.398 63.2446 252.125 63.2446ZM260.405 64.0635Q259.418 64.0635 258.625 63.616Q257.831 63.1685 257.374 62.375Q256.92 61.5815 256.92 60.5818Q256.92 59.5789 257.374 58.7886Q257.831 57.9951 258.625 57.554Q259.418 57.1096 260.405 57.1096Q261.392 57.1096 262.186 57.554Q262.979 57.9951 263.427 58.7886Q263.878 59.5789 263.878 60.5818Q263.878 61.5815 263.427 62.375Q262.979 63.1685 262.186 63.616Q261.392 64.0635 260.405 64.0635ZM260.405 63.2446Q261.135 63.2446 261.713 62.9146Q262.291 62.5845 262.614 61.9751Q262.941 61.3625 262.941 60.5818Q262.941 59.801 262.614 59.1917Q262.291 58.5791 261.713 58.249Q261.135 57.9158 260.405 57.9158Q259.679 57.9158 259.098 58.249Q258.52 58.5791 258.187 59.1917Q257.857 59.801 257.857 60.5818Q257.857 61.3625 258.187 61.9751Q258.52 62.5845 259.098 62.9146Q259.679 63.2446 260.405 63.2446ZM270.209 60.4644Q271.6 60.7881 271.6 62.1401Q271.6 63.0383 270.936 63.5208Q270.273 64 268.962 64L265.855 64L265.855 57.1636L268.87 57.1636Q270.041 57.1636 270.701 57.6174Q271.365 58.0713 271.365 58.9155Q271.365 59.4773 271.06 59.874Q270.755 60.2676 270.209 60.4644ZM266.75 60.2041L268.803 60.2041Q269.597 60.2041 270.019 59.9058Q270.444 59.6074 270.444 59.033Q270.444 58.4617 270.019 58.176Q269.597 57.8904 268.803 57.8904L266.75 57.8904L266.75 60.2041ZM268.921 63.2732Q269.806 63.2732 270.248 62.9875Q270.689 62.6987 270.689 62.0894Q270.689 61.4768 270.286 61.1848Q269.883 60.8928 269.013 60.8928L266.75 60.8928L266.75 63.2732L268.921 63.2732ZM276.111 57.1096Q277.45 57.1096 278.164 57.7793Q278.882 58.449 278.882 59.7629L278.882 64L277.996 64L277.996 62.9336Q277.685 63.4668 277.079 63.7651Q276.476 64.0635 275.644 64.0635Q274.498 64.0635 273.822 63.5176Q273.146 62.9717 273.146 62.0767Q273.146 61.2039 273.778 60.6707Q274.41 60.1375 275.787 60.1375L277.958 60.1375L277.958 59.7217Q277.958 58.8394 277.463 58.3792Q276.971 57.9158 276.019 57.9158Q275.371 57.9158 274.771 58.1316Q274.175 58.3442 273.746 58.7219L273.331 58.0332Q273.848 57.592 274.575 57.3508Q275.305 57.1096 276.111 57.1096ZM275.787 63.3367Q276.568 63.3367 277.126 62.9812Q277.685 62.6226 277.958 61.9465L277.958 60.8293L275.812 60.8293Q274.057 60.8293 274.057 62.0513Q274.057 62.6479 274.511 62.9939Q274.968 63.3367 275.787 63.3367ZM286.146 57.9824L283.56 57.9824L283.56 64L282.636 64L282.636 57.9824L280.049 57.9824L280.049 57.1636L286.146 57.1636L286.146 57.9824ZM290.423 59.5789Q291.711 59.5916 292.381 60.1533Q293.051 60.7119 293.051 61.7625Q293.051 62.8574 292.327 63.4414Q291.607 64.0254 290.242 64.0127L287.487 64L287.487 57.1636L288.411 57.1636L288.411 59.5535L290.423 59.5789ZM290.191 63.3113Q291.14 63.324 291.626 62.9272Q292.114 62.5305 292.114 61.7625Q292.114 61.0103 291.632 60.6484Q291.153 60.2834 290.191 60.2676L288.411 60.2422L288.411 63.2859L290.191 63.3113Z" fill="#636363" fill-opacity="1.000000" fill-rule="evenodd"/>
	<path id="Вид ремонта" d="M368.928 59.3059Q369.877 59.5027 370.369 60.0676Q370.865 60.6326 370.865 61.5435Q370.865 62.7273 370.027 63.3652Q369.189 64 367.564 64L363.533 64L363.533 54.9006L367.316 54.9006Q368.773 54.9006 369.592 55.5005Q370.411 56.0972 370.411 57.2271Q370.411 57.9951 370.02 58.522Q369.63 59.0457 368.928 59.3059ZM364.482 59.0203L367.265 59.0203Q368.319 59.0203 368.884 58.5918Q369.449 58.1633 369.449 57.3445Q369.449 56.5256 368.884 56.0972Q368.319 55.6655 367.265 55.6655L364.482 55.6655L364.482 59.0203ZM367.564 63.2319Q369.916 63.2319 369.916 61.4768Q369.916 59.7629 367.564 59.7629L364.482 59.7629L364.482 63.2319L367.564 63.2319ZM373.051 57.1636L373.975 57.1636L373.975 62.5972L378.535 57.1636L379.354 57.1636L379.354 64L378.431 64L378.431 58.5664L373.883 64L373.051 64L373.051 57.1636ZM388.663 63.1938L388.663 65.6504L387.794 65.6504L387.794 64L381.668 64L381.668 65.6504L380.798 65.6504L380.798 63.1938L381.189 63.1938Q381.878 63.1558 382.122 62.1814Q382.369 61.2039 382.462 59.4487L382.554 57.1636L387.597 57.1636L387.597 63.1938L388.663 63.1938ZM383.306 59.5027Q383.242 60.9595 383.058 61.9021Q382.877 62.8416 382.411 63.1938L386.673 63.1938L386.673 57.9824L383.385 57.9824L383.306 59.5027ZM397.387 57.1096Q398.349 57.1096 399.126 57.5476Q399.907 57.9824 400.348 58.7759Q400.792 59.5662 400.792 60.5818Q400.792 61.6069 400.348 62.4004Q399.907 63.1938 399.133 63.6287Q398.361 64.0635 397.387 64.0635Q396.552 64.0635 395.883 63.7207Q395.213 63.3748 394.784 62.7114L394.784 66.5232L393.864 66.5232L393.864 57.1636L394.746 57.1636L394.746 58.5125Q395.162 57.8364 395.844 57.4746Q396.527 57.1096 397.387 57.1096ZM397.32 63.2446Q398.034 63.2446 398.618 62.9146Q399.206 62.5845 399.536 61.9751Q399.869 61.3625 399.869 60.5818Q399.869 59.801 399.536 59.198Q399.206 58.5918 398.618 58.2554Q398.034 57.9158 397.32 57.9158Q396.593 57.9158 396.013 58.2554Q395.435 58.5918 395.102 59.198Q394.772 59.801 394.772 60.5818Q394.772 61.3625 395.102 61.9751Q395.435 62.5845 396.013 62.9146Q396.593 63.2446 397.32 63.2446ZM408.758 60.8674L403.039 60.8674Q403.118 61.9338 403.858 62.5908Q404.601 63.2446 405.73 63.2446Q406.368 63.2446 406.902 63.0193Q407.435 62.7908 407.825 62.3496L408.343 62.9463Q407.889 63.4922 407.206 63.7778Q406.524 64.0635 405.705 64.0635Q404.651 64.0635 403.839 63.616Q403.026 63.1685 402.569 62.375Q402.115 61.5815 402.115 60.5818Q402.115 59.5789 402.55 58.7886Q402.988 57.9951 403.747 57.554Q404.509 57.1096 405.458 57.1096Q406.406 57.1096 407.159 57.554Q407.914 57.9951 408.343 58.7822Q408.774 59.5662 408.774 60.5818L408.758 60.8674ZM405.458 57.9031Q404.47 57.9031 403.801 58.5347Q403.131 59.1631 403.039 60.1787L407.889 60.1787Q407.797 59.1631 407.127 58.5347Q406.457 57.9031 405.458 57.9031ZM418.459 57.1636L418.459 64L417.614 64L417.614 58.5918L414.844 63.1685L414.428 63.1685L411.66 58.5791L411.66 64L410.816 64L410.816 57.1636L411.752 57.1636L414.65 62.0894L417.602 57.1636L418.459 57.1636ZM423.904 64.0635Q422.917 64.0635 422.124 63.616Q421.33 63.1685 420.873 62.375Q420.419 61.5815 420.419 60.5818Q420.419 59.5789 420.873 58.7886Q421.33 57.9951 422.124 57.554Q422.917 57.1096 423.904 57.1096Q424.891 57.1096 425.685 57.554Q426.478 57.9951 426.926 58.7886Q427.376 59.5789 427.376 60.5818Q427.376 61.5815 426.926 62.375Q426.478 63.1685 425.685 63.616Q424.891 64.0635 423.904 64.0635ZM423.904 63.2446Q424.634 63.2446 425.212 62.9146Q425.79 62.5845 426.113 61.9751Q426.44 61.3625 426.44 60.5818Q426.44 59.801 426.113 59.1917Q425.79 58.5791 425.212 58.249Q424.634 57.9158 423.904 57.9158Q423.178 57.9158 422.597 58.249Q422.019 58.5791 421.686 59.1917Q421.356 59.801 421.356 60.5818Q421.356 61.3625 421.686 61.9751Q422.019 62.5845 422.597 62.9146Q423.178 63.2446 423.904 63.2446ZM429.354 57.1636L430.278 57.1636L430.278 60.1914L434.578 60.1914L434.578 57.1636L435.502 57.1636L435.502 64L434.578 64L434.578 60.9849L430.278 60.9849L430.278 64L429.354 64L429.354 57.1636ZM442.937 57.9824L440.351 57.9824L440.351 64L439.427 64L439.427 57.9824L436.84 57.9824L436.84 57.1636L442.937 57.1636L442.937 57.9824ZM446.63 57.1096Q447.969 57.1096 448.683 57.7793Q449.401 58.449 449.401 59.7629L449.401 64L448.515 64L448.515 62.9336Q448.204 63.4668 447.598 63.7651Q446.995 64.0635 446.163 64.0635Q445.017 64.0635 444.341 63.5176Q443.665 62.9717 443.665 62.0767Q443.665 61.2039 444.297 60.6707Q444.929 60.1375 446.306 60.1375L448.477 60.1375L448.477 59.7217Q448.477 58.8394 447.982 58.3792Q447.49 57.9158 446.538 57.9158Q445.89 57.9158 445.29 58.1316Q444.694 58.3442 444.265 58.7219L443.849 58.0332Q444.367 57.592 445.094 57.3508Q445.824 57.1096 446.63 57.1096ZM446.306 63.3367Q447.087 63.3367 447.645 62.9812Q448.204 62.6226 448.477 61.9465L448.477 60.8293L446.331 60.8293Q444.576 60.8293 444.576 62.0513Q444.576 62.6479 445.03 62.9939Q445.487 63.3367 446.306 63.3367Z" fill="#636363" fill-opacity="1.000000" fill-rule="evenodd"/>
	<path id="Тип помещения" d="M645.487 55.7322L642.291 55.7322L642.291 64L641.342 64L641.342 55.7322L638.143 55.7322L638.143 54.9006L645.487 54.9006L645.487 55.7322ZM646.776 57.1636L647.7 57.1636L647.7 62.5972L652.26 57.1636L653.079 57.1636L653.079 64L652.156 64L652.156 58.5664L647.607 64L646.776 64L646.776 57.1636ZM661.855 57.1636L661.855 64L660.931 64L660.931 57.9824L656.644 57.9824L656.644 64L655.72 64L655.72 57.1636L661.855 57.1636ZM674.023 57.1636L674.023 64L673.099 64L673.099 57.9824L668.812 57.9824L668.812 64L667.888 64L667.888 57.1636L674.023 57.1636ZM679.468 64.0635Q678.481 64.0635 677.688 63.616Q676.894 63.1685 676.437 62.375Q675.983 61.5815 675.983 60.5818Q675.983 59.5789 676.437 58.7886Q676.894 57.9951 677.688 57.554Q678.481 57.1096 679.468 57.1096Q680.455 57.1096 681.249 57.554Q682.042 57.9951 682.49 58.7886Q682.94 59.5789 682.94 60.5818Q682.94 61.5815 682.49 62.375Q682.042 63.1685 681.249 63.616Q680.455 64.0635 679.468 64.0635ZM679.468 63.2446Q680.198 63.2446 680.776 62.9146Q681.354 62.5845 681.677 61.9751Q682.004 61.3625 682.004 60.5818Q682.004 59.801 681.677 59.1917Q681.354 58.5791 680.776 58.249Q680.198 57.9158 679.468 57.9158Q678.742 57.9158 678.161 58.249Q677.583 58.5791 677.25 59.1917Q676.92 59.801 676.92 60.5818Q676.92 61.3625 677.25 61.9751Q677.583 62.5845 678.161 62.9146Q678.742 63.2446 679.468 63.2446ZM692.561 57.1636L692.561 64L691.716 64L691.716 58.5918L688.946 63.1685L688.53 63.1685L685.762 58.5791L685.762 64L684.918 64L684.918 57.1636L685.854 57.1636L688.752 62.0894L691.704 57.1636L692.561 57.1636ZM701.164 60.8674L695.445 60.8674Q695.524 61.9338 696.264 62.5908Q697.007 63.2446 698.136 63.2446Q698.774 63.2446 699.308 63.0193Q699.841 62.7908 700.231 62.3496L700.749 62.9463Q700.295 63.4922 699.612 63.7778Q698.93 64.0635 698.111 64.0635Q697.057 64.0635 696.245 63.616Q695.432 63.1685 694.975 62.375Q694.521 61.5815 694.521 60.5818Q694.521 59.5789 694.956 58.7886Q695.394 57.9951 696.153 57.554Q696.915 57.1096 697.864 57.1096Q698.812 57.1096 699.565 57.554Q700.32 57.9951 700.749 58.7822Q701.18 59.5662 701.18 60.5818L701.164 60.8674ZM697.864 57.9031Q696.876 57.9031 696.207 58.5347Q695.537 59.1631 695.445 60.1787L700.295 60.1787Q700.203 59.1631 699.533 58.5347Q698.863 57.9031 697.864 57.9031ZM712.658 57.1636L712.658 64L703.222 64L703.222 57.1636L704.146 57.1636L704.146 63.1938L707.497 63.1938L707.497 57.1636L708.421 57.1636L708.421 63.1938L711.737 63.1938L711.737 57.1636L712.658 57.1636ZM713.711 63.1938L713.711 65.4949L712.839 65.4949L712.839 64L711.683 64L711.683 63.1938L713.711 63.1938ZM721.275 60.8674L715.556 60.8674Q715.635 61.9338 716.375 62.5908Q717.118 63.2446 718.247 63.2446Q718.885 63.2446 719.419 63.0193Q719.952 62.7908 720.342 62.3496L720.859 62.9463Q720.406 63.4922 719.723 63.7778Q719.041 64.0635 718.222 64.0635Q717.168 64.0635 716.356 63.616Q715.543 63.1685 715.086 62.375Q714.632 61.5815 714.632 60.5818Q714.632 59.5789 715.067 58.7886Q715.505 57.9951 716.264 57.554Q717.026 57.1096 717.974 57.1096Q718.923 57.1096 719.676 57.554Q720.431 57.9951 720.859 58.7822Q721.291 59.5662 721.291 60.5818L721.275 60.8674ZM717.974 57.9031Q716.987 57.9031 716.318 58.5347Q715.648 59.1631 715.556 60.1787L720.406 60.1787Q720.314 59.1631 719.644 58.5347Q718.974 57.9031 717.974 57.9031ZM723.333 57.1636L724.257 57.1636L724.257 60.1914L728.557 60.1914L728.557 57.1636L729.481 57.1636L729.481 64L728.557 64L728.557 60.9849L724.257 60.9849L724.257 64L723.333 64L723.333 57.1636ZM732.108 57.1636L733.032 57.1636L733.032 62.5972L737.592 57.1636L738.411 57.1636L738.411 64L737.488 64L737.488 58.5664L732.94 64L732.108 64L732.108 57.1636ZM746.301 57.1636L746.301 64L745.457 64L745.457 61.7371L743.312 61.7371L743.051 61.7371L741.468 64L740.465 64L742.169 61.6069Q741.376 61.3879 740.947 60.8547Q740.519 60.3215 740.519 59.5027Q740.519 58.3569 741.296 57.7603Q742.077 57.1636 743.429 57.1636L746.301 57.1636ZM741.455 59.5281Q741.455 61.0483 743.391 61.0483L745.457 61.0483L745.457 57.9824L743.455 57.9824Q741.455 57.9824 741.455 59.5281Z" fill="#636363" fill-opacity="1.000000" fill-rule="evenodd"/>
	<path id="Площадь помещения кв.м.: 120" d="M1091.92 54.9006L1091.92 64L1089.81 64L1089.81 56.5891L1087.99 56.5891L1087.99 54.9006L1091.92 54.9006ZM1100.3 62.283L1100.3 64L1093.43 64L1093.43 62.6353L1096.94 59.3186Q1097.5 58.7886 1097.69 58.4045Q1097.89 58.0205 1097.89 57.6428Q1097.89 57.0969 1097.51 56.8049Q1097.15 56.5129 1096.43 56.5129Q1095.83 56.5129 1095.35 56.7415Q1094.87 56.9668 1094.54 57.4207L1093.01 56.4336Q1093.54 55.6401 1094.48 55.1926Q1095.42 54.7451 1096.63 54.7451Q1097.64 54.7451 1098.4 55.0784Q1099.16 55.4084 1099.58 56.0115Q1100.01 56.6145 1100.01 57.4365Q1100.01 58.176 1099.69 58.8267Q1099.38 59.4773 1098.49 60.3088L1096.39 62.283L1100.3 62.283ZM1105.05 64.1555Q1103.92 64.1555 1103.03 63.5969Q1102.15 63.0383 1101.65 61.9783Q1101.15 60.9182 1101.15 59.4487Q1101.15 57.9824 1101.65 56.9224Q1102.15 55.8623 1103.03 55.3037Q1103.92 54.7451 1105.05 54.7451Q1106.18 54.7451 1107.06 55.3037Q1107.95 55.8623 1108.45 56.9224Q1108.95 57.9824 1108.95 59.4487Q1108.95 60.9182 1108.45 61.9783Q1107.95 63.0383 1107.06 63.5969Q1106.18 64.1555 1105.05 64.1555ZM1105.05 62.375Q1105.88 62.375 1106.35 61.6609Q1106.83 60.9436 1106.83 59.4487Q1106.83 57.9539 1106.35 57.2397Q1105.88 56.5256 1105.05 56.5256Q1104.23 56.5256 1103.75 57.2397Q1103.28 57.9539 1103.28 59.4487Q1103.28 60.9436 1103.75 61.6609Q1104.23 62.375 1105.05 62.375Z" fill="#2571ED" fill-opacity="1.000000" fill-rule="evenodd"/>
	<path id="Площадь помещения кв.м.: 120" d="M909.191 54.9006L909.191 64L908.242 64L908.242 55.7322L902.482 55.7322L902.482 64L901.533 64L901.533 54.9006L909.191 54.9006ZM917.628 57.1636L917.628 64L916.704 64L916.704 57.9824L913.429 57.9824L913.337 59.6709Q913.235 61.8037 912.845 62.9495Q912.455 64.092 911.452 64.092Q911.179 64.092 910.788 63.9873L910.855 63.1938Q911.09 63.2446 911.179 63.2446Q911.712 63.2446 911.985 62.7527Q912.258 62.2576 912.35 61.5308Q912.442 60.8008 912.505 59.6074L912.623 57.1636L917.628 57.1636ZM923.073 64.0635Q922.086 64.0635 921.293 63.616Q920.499 63.1685 920.042 62.375Q919.588 61.5815 919.588 60.5818Q919.588 59.5789 920.042 58.7886Q920.499 57.9951 921.293 57.554Q922.086 57.1096 923.073 57.1096Q924.06 57.1096 924.854 57.554Q925.647 57.9951 926.095 58.7886Q926.545 59.5789 926.545 60.5818Q926.545 61.5815 926.095 62.375Q925.647 63.1685 924.854 63.616Q924.06 64.0635 923.073 64.0635ZM923.073 63.2446Q923.803 63.2446 924.381 62.9146Q924.959 62.5845 925.282 61.9751Q925.609 61.3625 925.609 60.5818Q925.609 59.801 925.282 59.1917Q924.959 58.5791 924.381 58.249Q923.803 57.9158 923.073 57.9158Q922.346 57.9158 921.766 58.249Q921.188 58.5791 920.855 59.1917Q920.525 59.801 920.525 60.5818Q920.525 61.3625 920.855 61.9751Q921.188 62.5845 921.766 62.9146Q922.346 63.2446 923.073 63.2446ZM937.959 57.1636L937.959 64L928.523 64L928.523 57.1636L929.447 57.1636L929.447 63.1938L932.798 63.1938L932.798 57.1636L933.722 57.1636L933.722 63.1938L937.038 63.1938L937.038 57.1636L937.959 57.1636ZM939.012 63.1938L939.012 65.4949L938.14 65.4949L938.14 64L936.984 64L936.984 63.1938L939.012 63.1938ZM942.952 57.1096Q944.291 57.1096 945.005 57.7793Q945.723 58.449 945.723 59.7629L945.723 64L944.837 64L944.837 62.9336Q944.526 63.4668 943.92 63.7651Q943.317 64.0635 942.485 64.0635Q941.339 64.0635 940.663 63.5176Q939.987 62.9717 939.987 62.0767Q939.987 61.2039 940.619 60.6707Q941.251 60.1375 942.628 60.1375L944.799 60.1375L944.799 59.7217Q944.799 58.8394 944.304 58.3792Q943.812 57.9158 942.86 57.9158Q942.212 57.9158 941.612 58.1316Q941.016 58.3442 940.587 58.7219L940.172 58.0332Q940.689 57.592 941.416 57.3508Q942.146 57.1096 942.952 57.1096ZM942.628 63.3367Q943.409 63.3367 943.967 62.9812Q944.526 62.6226 944.799 61.9465L944.799 60.8293L942.653 60.8293Q940.898 60.8293 940.898 62.0513Q940.898 62.6479 941.352 62.9939Q941.809 63.3367 942.628 63.3367ZM954.847 63.1938L954.847 65.6504L953.978 65.6504L953.978 64L947.852 64L947.852 65.6504L946.982 65.6504L946.982 63.1938L947.373 63.1938Q948.062 63.1558 948.306 62.1814Q948.553 61.2039 948.646 59.4487L948.738 57.1636L953.781 57.1636L953.781 63.1938L954.847 63.1938ZM949.49 59.5027Q949.426 60.9595 949.242 61.9021Q949.061 62.8416 948.595 63.1938L952.857 63.1938L952.857 57.9824L949.569 57.9824L949.49 59.5027ZM959.578 59.5789Q960.866 59.5916 961.536 60.1533Q962.206 60.7119 962.206 61.7625Q962.206 62.8574 961.482 63.4414Q960.762 64.0254 959.397 64.0127L956.642 64L956.642 57.1636L957.566 57.1636L957.566 59.5535L959.578 59.5789ZM959.346 63.3113Q960.295 63.324 960.781 62.9272Q961.269 62.5305 961.269 61.7625Q961.269 61.0103 960.787 60.6484Q960.308 60.2834 959.346 60.2676L957.566 60.2422L957.566 63.2859L959.346 63.3113ZM973.502 57.1636L973.502 64L972.578 64L972.578 57.9824L968.291 57.9824L968.291 64L967.367 64L967.367 57.1636L973.502 57.1636ZM978.947 64.0635Q977.96 64.0635 977.167 63.616Q976.373 63.1685 975.916 62.375Q975.462 61.5815 975.462 60.5818Q975.462 59.5789 975.916 58.7886Q976.373 57.9951 977.167 57.554Q977.96 57.1096 978.947 57.1096Q979.934 57.1096 980.728 57.554Q981.521 57.9951 981.969 58.7886Q982.419 59.5789 982.419 60.5818Q982.419 61.5815 981.969 62.375Q981.521 63.1685 980.728 63.616Q979.934 64.0635 978.947 64.0635ZM978.947 63.2446Q979.677 63.2446 980.255 62.9146Q980.833 62.5845 981.156 61.9751Q981.483 61.3625 981.483 60.5818Q981.483 59.801 981.156 59.1917Q980.833 58.5791 980.255 58.249Q979.677 57.9158 978.947 57.9158Q978.221 57.9158 977.64 58.249Q977.062 58.5791 976.729 59.1917Q976.399 59.801 976.399 60.5818Q976.399 61.3625 976.729 61.9751Q977.062 62.5845 977.64 62.9146Q978.221 63.2446 978.947 63.2446ZM992.04 57.1636L992.04 64L991.195 64L991.195 58.5918L988.425 63.1685L988.009 63.1685L985.241 58.5791L985.241 64L984.397 64L984.397 57.1636L985.333 57.1636L988.231 62.0894L991.183 57.1636L992.04 57.1636ZM1000.64 60.8674L994.924 60.8674Q995.003 61.9338 995.743 62.5908Q996.486 63.2446 997.615 63.2446Q998.253 63.2446 998.787 63.0193Q999.32 62.7908 999.71 62.3496L1000.23 62.9463Q999.774 63.4922 999.091 63.7778Q998.409 64.0635 997.59 64.0635Q996.536 64.0635 995.724 63.616Q994.911 63.1685 994.454 62.375Q994 61.5815 994 60.5818Q994 59.5789 994.435 58.7886Q994.873 57.9951 995.632 57.554Q996.394 57.1096 997.343 57.1096Q998.292 57.1096 999.044 57.554Q999.799 57.9951 1000.23 58.7822Q1000.66 59.5662 1000.66 60.5818L1000.64 60.8674ZM997.343 57.9031Q996.355 57.9031 995.686 58.5347Q995.016 59.1631 994.924 60.1787L999.774 60.1787Q999.682 59.1631 999.012 58.5347Q998.342 57.9031 997.343 57.9031ZM1012.14 57.1636L1012.14 64L1002.7 64L1002.7 57.1636L1003.62 57.1636L1003.62 63.1938L1006.98 63.1938L1006.98 57.1636L1007.9 57.1636L1007.9 63.1938L1011.22 63.1938L1011.22 57.1636L1012.14 57.1636ZM1013.19 63.1938L1013.19 65.4949L1012.32 65.4949L1012.32 64L1011.16 64L1011.16 63.1938L1013.19 63.1938ZM1020.75 60.8674L1015.04 60.8674Q1015.11 61.9338 1015.85 62.5908Q1016.6 63.2446 1017.73 63.2446Q1018.36 63.2446 1018.9 63.0193Q1019.43 62.7908 1019.82 62.3496L1020.34 62.9463Q1019.88 63.4922 1019.2 63.7778Q1018.52 64.0635 1017.7 64.0635Q1016.65 64.0635 1015.83 63.616Q1015.02 63.1685 1014.57 62.375Q1014.11 61.5815 1014.11 60.5818Q1014.11 59.5789 1014.55 58.7886Q1014.98 57.9951 1015.74 57.554Q1016.5 57.1096 1017.45 57.1096Q1018.4 57.1096 1019.15 57.554Q1019.91 57.9951 1020.34 58.7822Q1020.77 59.5662 1020.77 60.5818L1020.75 60.8674ZM1017.45 57.9031Q1016.47 57.9031 1015.8 58.5347Q1015.13 59.1631 1015.04 60.1787L1019.88 60.1787Q1019.79 59.1631 1019.12 58.5347Q1018.45 57.9031 1017.45 57.9031ZM1022.81 57.1636L1023.74 57.1636L1023.74 60.1914L1028.04 60.1914L1028.04 57.1636L1028.96 57.1636L1028.96 64L1028.04 64L1028.04 60.9849L1023.74 60.9849L1023.74 64L1022.81 64L1022.81 57.1636ZM1031.59 57.1636L1032.51 57.1636L1032.51 62.5972L1037.07 57.1636L1037.89 57.1636L1037.89 64L1036.97 64L1036.97 58.5664L1032.42 64L1031.59 64L1031.59 57.1636ZM1045.78 57.1636L1045.78 64L1044.94 64L1044.94 61.7371L1042.79 61.7371L1042.53 61.7371L1040.95 64L1039.94 64L1041.65 61.6069Q1040.85 61.3879 1040.43 60.8547Q1040 60.3215 1040 59.5027Q1040 58.3569 1040.78 57.7603Q1041.56 57.1636 1042.91 57.1636L1045.78 57.1636ZM1040.93 59.5281Q1040.93 61.0483 1042.87 61.0483L1044.94 61.0483L1044.94 57.9824L1042.93 57.9824Q1040.93 57.9824 1040.93 59.5281ZM1054.3 60.9595L1052.74 60.9595L1052.74 64L1051.81 64L1051.81 57.1636L1052.74 57.1636L1052.74 60.166L1054.31 60.166L1056.72 57.1636L1057.72 57.1636L1055.02 60.4771L1057.91 64L1056.82 64L1054.3 60.9595ZM1063.72 60.4644Q1065.11 60.7881 1065.11 62.1401Q1065.11 63.0383 1064.45 63.5208Q1063.79 64 1062.48 64L1059.37 64L1059.37 57.1636L1062.38 57.1636Q1063.55 57.1636 1064.21 57.6174Q1064.88 58.0713 1064.88 58.9155Q1064.88 59.4773 1064.57 59.874Q1064.27 60.2676 1063.72 60.4644ZM1060.26 60.2041L1062.32 60.2041Q1063.11 60.2041 1063.53 59.9058Q1063.96 59.6074 1063.96 59.033Q1063.96 58.4617 1063.53 58.176Q1063.11 57.8904 1062.32 57.8904L1060.26 57.8904L1060.26 60.2041ZM1062.43 63.2732Q1063.32 63.2732 1063.76 62.9875Q1064.2 62.6987 1064.2 62.0894Q1064.2 61.4768 1063.8 61.1848Q1063.4 60.8928 1062.53 60.8928L1060.26 60.8928L1060.26 63.2732L1062.43 63.2732ZM1067.34 64.0635Q1067.05 64.0635 1066.85 63.8572Q1066.65 63.6477 1066.65 63.3494Q1066.65 63.051 1066.85 62.8511Q1067.05 62.6479 1067.34 62.6479Q1067.62 62.6479 1067.83 62.8511Q1068.04 63.051 1068.04 63.3494Q1068.04 63.6477 1067.83 63.8572Q1067.62 64.0635 1067.34 64.0635ZM1077.67 57.1636L1077.67 64L1076.83 64L1076.83 58.5918L1074.06 63.1685L1073.64 63.1685L1070.87 58.5791L1070.87 64L1070.03 64L1070.03 57.1636L1070.96 57.1636L1073.86 62.0894L1076.81 57.1636L1077.67 57.1636ZM1080.36 64.0635Q1080.08 64.0635 1079.87 63.8572Q1079.67 63.6477 1079.67 63.3494Q1079.67 63.051 1079.87 62.8511Q1080.08 62.6479 1080.36 62.6479Q1080.65 62.6479 1080.85 62.8511Q1081.06 63.051 1081.06 63.3494Q1081.06 63.6477 1080.85 63.8572Q1080.65 64.0635 1080.36 64.0635ZM1083.12 58.5251Q1082.83 58.5251 1082.63 58.3188Q1082.43 58.1094 1082.43 57.811Q1082.43 57.5127 1082.63 57.3127Q1082.83 57.1096 1083.12 57.1096Q1083.4 57.1096 1083.61 57.3127Q1083.82 57.5127 1083.82 57.811Q1083.82 58.1094 1083.61 58.3188Q1083.4 58.5251 1083.12 58.5251ZM1083.12 64.0635Q1082.83 64.0635 1082.63 63.8572Q1082.43 63.6477 1082.43 63.3494Q1082.43 63.051 1082.63 62.8511Q1082.83 62.6479 1083.12 62.6479Q1083.4 62.6479 1083.61 62.8511Q1083.82 63.051 1083.82 63.3494Q1083.82 63.6477 1083.61 63.8572Q1083.4 64.0635 1083.12 64.0635Z" fill="#636363" fill-opacity="1.000000" fill-rule="evenodd"/>
	<circle id="Ellipse 14" cx="990.000000" cy="100.000000" r="7.000000" fill="#2671ED" fill-opacity="1.000000"/>
	<path id="Срок выполнения" d="M236.513 148.079Q235.161 148.079 234.075 147.483Q232.99 146.883 232.371 145.823Q231.755 144.763 231.755 143.449Q231.755 142.138 232.371 141.078Q232.99 140.018 234.082 139.421Q235.174 138.821 236.526 138.821Q237.541 138.821 238.398 139.161Q239.255 139.497 239.855 140.148L239.242 140.76Q238.176 139.681 236.551 139.681Q235.472 139.681 234.586 140.177Q233.704 140.668 233.203 141.529Q232.704 142.385 232.704 143.449Q232.704 144.515 233.203 145.375Q233.704 146.232 234.586 146.727Q235.472 147.219 236.551 147.219Q238.192 147.219 239.242 146.127L239.855 146.74Q239.255 147.387 238.392 147.733Q237.529 148.079 236.513 148.079ZM245.145 141.11Q246.107 141.11 246.884 141.548Q247.665 141.982 248.106 142.776Q248.55 143.566 248.55 144.582Q248.55 145.607 248.106 146.4Q247.665 147.194 246.891 147.629Q246.119 148.063 245.145 148.063Q244.31 148.063 243.641 147.721Q242.971 147.375 242.542 146.711L242.542 150.523L241.622 150.523L241.622 141.164L242.504 141.164L242.504 142.512Q242.92 141.836 243.602 141.475Q244.285 141.11 245.145 141.11ZM245.078 147.245Q245.792 147.245 246.376 146.915Q246.964 146.584 247.294 145.975Q247.627 145.363 247.627 144.582Q247.627 143.801 247.294 143.198Q246.964 142.592 246.376 142.255Q245.792 141.916 245.078 141.916Q244.351 141.916 243.771 142.255Q243.193 142.592 242.86 143.198Q242.53 143.801 242.53 144.582Q242.53 145.363 242.86 145.975Q243.193 146.584 243.771 146.915Q244.351 147.245 245.078 147.245ZM253.358 148.063Q252.371 148.063 251.578 147.616Q250.784 147.168 250.327 146.375Q249.873 145.582 249.873 144.582Q249.873 143.579 250.327 142.789Q250.784 141.995 251.578 141.554Q252.371 141.11 253.358 141.11Q254.345 141.11 255.139 141.554Q255.932 141.995 256.38 142.789Q256.831 143.579 256.831 144.582Q256.831 145.582 256.38 146.375Q255.932 147.168 255.139 147.616Q254.345 148.063 253.358 148.063ZM253.358 147.245Q254.088 147.245 254.666 146.915Q255.244 146.584 255.567 145.975Q255.894 145.363 255.894 144.582Q255.894 143.801 255.567 143.192Q255.244 142.579 254.666 142.249Q254.088 141.916 253.358 141.916Q252.632 141.916 252.051 142.249Q251.473 142.579 251.14 143.192Q250.81 143.801 250.81 144.582Q250.81 145.363 251.14 145.975Q251.473 146.584 252.051 146.915Q252.632 147.245 253.358 147.245ZM261.29 144.959L259.732 144.959L259.732 148L258.808 148L258.808 141.164L259.732 141.164L259.732 144.166L261.303 144.166L263.708 141.164L264.708 141.164L262.017 144.477L264.905 148L263.813 148L261.29 144.959ZM274.121 144.464Q275.512 144.788 275.512 146.14Q275.512 147.038 274.848 147.521Q274.185 148 272.874 148L269.767 148L269.767 141.164L272.782 141.164Q273.953 141.164 274.613 141.617Q275.277 142.071 275.277 142.916Q275.277 143.477 274.972 143.874Q274.667 144.268 274.121 144.464ZM270.662 144.204L272.715 144.204Q273.509 144.204 273.931 143.906Q274.356 143.607 274.356 143.033Q274.356 142.462 273.931 142.176Q273.509 141.89 272.715 141.89L270.662 141.89L270.662 144.204ZM272.833 147.273Q273.718 147.273 274.16 146.988Q274.601 146.699 274.601 146.089Q274.601 145.477 274.198 145.185Q273.795 144.893 272.925 144.893L270.662 144.893L270.662 147.273L272.833 147.273ZM280.543 143.579Q281.829 143.592 282.505 144.153Q283.181 144.712 283.181 145.762Q283.181 146.857 282.454 147.441Q281.727 148.025 280.375 148.013L277.671 148L277.671 141.164L278.595 141.164L278.595 143.553L280.543 143.579ZM284.326 141.164L285.25 141.164L285.25 148L284.326 148L284.326 141.164ZM280.321 147.311Q281.27 147.324 281.756 146.927Q282.244 146.531 282.244 145.762Q282.244 145.01 281.762 144.648Q281.283 144.283 280.321 144.268L278.595 144.242L278.595 147.286L280.321 147.311ZM294.011 141.164L294.011 148L293.087 148L293.087 141.982L288.8 141.982L288.8 148L287.876 148L287.876 141.164L294.011 141.164ZM299.456 148.063Q298.469 148.063 297.676 147.616Q296.882 147.168 296.425 146.375Q295.971 145.582 295.971 144.582Q295.971 143.579 296.425 142.789Q296.882 141.995 297.676 141.554Q298.469 141.11 299.456 141.11Q300.443 141.11 301.237 141.554Q302.03 141.995 302.478 142.789Q302.928 143.579 302.928 144.582Q302.928 145.582 302.478 146.375Q302.03 147.168 301.237 147.616Q300.443 148.063 299.456 148.063ZM299.456 147.245Q300.186 147.245 300.764 146.915Q301.342 146.584 301.665 145.975Q301.992 145.363 301.992 144.582Q301.992 143.801 301.665 143.192Q301.342 142.579 300.764 142.249Q300.186 141.916 299.456 141.916Q298.73 141.916 298.149 142.249Q297.571 142.579 297.238 143.192Q296.908 143.801 296.908 144.582Q296.908 145.363 297.238 145.975Q297.571 146.584 298.149 146.915Q298.73 147.245 299.456 147.245ZM310.456 141.164L310.456 148L309.533 148L309.533 141.982L306.257 141.982L306.165 143.671Q306.064 145.804 305.673 146.949Q305.283 148.092 304.28 148.092Q304.007 148.092 303.616 147.987L303.683 147.194Q303.918 147.245 304.007 147.245Q304.54 147.245 304.813 146.753Q305.086 146.258 305.178 145.531Q305.27 144.801 305.334 143.607L305.451 141.164L310.456 141.164ZM313.083 141.164L314.007 141.164L314.007 144.191L318.307 144.191L318.307 141.164L319.231 141.164L319.231 148L318.307 148L318.307 144.985L314.007 144.985L314.007 148L313.083 148L313.083 141.164ZM327.834 144.867L322.115 144.867Q322.194 145.934 322.934 146.591Q323.677 147.245 324.806 147.245Q325.444 147.245 325.978 147.019Q326.511 146.791 326.901 146.35L327.419 146.946Q326.965 147.492 326.282 147.778Q325.6 148.063 324.781 148.063Q323.727 148.063 322.915 147.616Q322.102 147.168 321.645 146.375Q321.191 145.582 321.191 144.582Q321.191 143.579 321.626 142.789Q322.064 141.995 322.823 141.554Q323.585 141.11 324.534 141.11Q325.482 141.11 326.235 141.554Q326.99 141.995 327.419 142.782Q327.85 143.566 327.85 144.582L327.834 144.867ZM324.534 141.903Q323.546 141.903 322.877 142.535Q322.207 143.163 322.115 144.179L326.965 144.179Q326.873 143.163 326.203 142.535Q325.533 141.903 324.534 141.903ZM329.892 141.164L330.816 141.164L330.816 144.191L335.116 144.191L335.116 141.164L336.04 141.164L336.04 148L335.116 148L335.116 144.985L330.816 144.985L330.816 148L329.892 148L329.892 141.164ZM338.667 141.164L339.591 141.164L339.591 146.597L344.151 141.164L344.97 141.164L344.97 148L344.047 148L344.047 142.566L339.499 148L338.667 148L338.667 141.164ZM352.861 141.164L352.861 148L352.016 148L352.016 145.737L349.871 145.737L349.611 145.737L348.027 148L347.024 148L348.728 145.607Q347.935 145.388 347.506 144.855Q347.078 144.322 347.078 143.503Q347.078 142.357 347.855 141.76Q348.636 141.164 349.988 141.164L352.861 141.164ZM348.014 143.528Q348.014 145.048 349.95 145.048L352.016 145.048L352.016 141.982L350.014 141.982Q348.014 141.982 348.014 143.528Z" fill="#636363" fill-opacity="1.000000" fill-rule="evenodd"/>
	<rect id="Rectangle 20" x="231.000000" y="164.000000" rx="5.000000" width="220.000000" height="39.000000" fill="#E9E9E9" fill-opacity="1.000000"/>
	<path id="90 - 120 дней" d="M253.704 179.745Q255.615 179.745 256.694 180.91Q257.773 182.072 257.773 184.255Q257.773 185.801 257.195 186.908Q256.617 188.013 255.564 188.584Q254.51 189.156 253.133 189.156Q252.406 189.156 251.742 188.994Q251.079 188.832 250.613 188.533L251.39 186.985Q252.053 187.438 253.094 187.438Q254.25 187.438 254.926 186.756Q255.602 186.074 255.656 184.788Q254.837 185.607 253.393 185.607Q252.523 185.607 251.806 185.258Q251.092 184.906 250.676 184.261Q250.26 183.617 250.26 182.773Q250.26 181.862 250.714 181.173Q251.171 180.485 251.955 180.116Q252.742 179.745 253.704 179.745ZM253.863 184.033Q254.551 184.033 254.986 183.652Q255.421 183.268 255.421 182.668Q255.421 182.072 254.999 181.694Q254.577 181.316 253.834 181.316Q253.158 181.316 252.736 181.681Q252.314 182.046 252.314 182.668Q252.314 183.293 252.736 183.665Q253.158 184.033 253.863 184.033ZM262.689 189.156Q261.556 189.156 260.671 188.597Q259.789 188.038 259.287 186.978Q258.789 185.918 258.789 184.449Q258.789 182.982 259.287 181.922Q259.789 180.862 260.671 180.304Q261.556 179.745 262.689 179.745Q263.819 179.745 264.702 180.304Q265.587 180.862 266.085 181.922Q266.587 182.982 266.587 184.449Q266.587 185.918 266.085 186.978Q265.587 188.038 264.702 188.597Q263.819 189.156 262.689 189.156ZM262.689 187.375Q263.521 187.375 263.994 186.661Q264.47 185.944 264.47 184.449Q264.47 182.954 263.994 182.24Q263.521 181.526 262.689 181.526Q261.867 181.526 261.391 182.24Q260.918 182.954 260.918 184.449Q260.918 185.944 261.391 186.661Q261.867 187.375 262.689 187.375ZM271.463 184.528L275.141 184.528L275.141 186.153L271.463 186.153L271.463 184.528ZM283.502 179.901L283.502 189L281.395 189L281.395 181.589L279.576 181.589L279.576 179.901L283.502 179.901ZM291.886 187.283L291.886 189L285.008 189L285.008 187.635L288.519 184.319Q289.077 183.789 289.271 183.405Q289.468 183.021 289.468 182.643Q289.468 182.097 289.096 181.805Q288.728 181.513 288.011 181.513Q287.414 181.513 286.932 181.741Q286.453 181.967 286.126 182.421L284.593 181.434Q285.126 180.64 286.062 180.193Q286.998 179.745 288.208 179.745Q289.22 179.745 289.982 180.078Q290.744 180.408 291.166 181.011Q291.588 181.615 291.588 182.437Q291.588 183.176 291.274 183.827Q290.963 184.477 290.068 185.309L287.973 187.283L291.886 187.283ZM296.632 189.156Q295.499 189.156 294.614 188.597Q293.732 188.038 293.23 186.978Q292.732 185.918 292.732 184.449Q292.732 182.982 293.23 181.922Q293.732 180.862 294.614 180.304Q295.499 179.745 296.632 179.745Q297.762 179.745 298.645 180.304Q299.53 180.862 300.028 181.922Q300.53 182.982 300.53 184.449Q300.53 185.918 300.028 186.978Q299.53 188.038 298.645 188.597Q297.762 189.156 296.632 189.156ZM296.632 187.375Q297.464 187.375 297.937 186.661Q298.413 185.944 298.413 184.449Q298.413 182.954 297.937 182.24Q297.464 181.526 296.632 181.526Q295.81 181.526 295.334 182.24Q294.861 182.954 294.861 184.449Q294.861 185.944 295.334 186.661Q295.81 187.375 296.632 187.375ZM313.544 187.337L313.544 190.508L311.658 190.508L311.658 189L306.745 189L306.745 190.508L304.86 190.508L304.86 187.337L305.146 187.337Q305.796 187.324 306.044 186.569Q306.292 185.813 306.355 184.423L306.447 182.005L312.544 182.005L312.544 187.337L313.544 187.337ZM308.189 184.566Q308.148 185.633 308.024 186.309Q307.901 186.985 307.564 187.337L310.516 187.337L310.516 183.671L308.228 183.671L308.189 184.566ZM314.817 182.005L316.833 182.005L316.833 184.738L319.876 184.738L319.876 182.005L321.905 182.005L321.905 189L319.876 189L319.876 186.388L316.833 186.388L316.833 189L314.817 189L314.817 182.005ZM330.638 185.528Q330.638 185.569 330.6 186.074L325.309 186.074Q325.452 186.724 325.985 187.102Q326.518 187.48 327.312 187.48Q327.857 187.48 328.28 187.318Q328.702 187.153 329.067 186.804L330.146 187.972Q329.159 189.105 327.261 189.105Q326.077 189.105 325.166 188.645Q324.255 188.181 323.76 187.362Q323.268 186.543 323.268 185.502Q323.268 184.477 323.754 183.652Q324.242 182.824 325.093 182.364Q325.947 181.903 327 181.903Q328.026 181.903 328.857 182.344Q329.689 182.786 330.162 183.611Q330.638 184.436 330.638 185.528ZM327.013 183.436Q326.324 183.436 325.855 183.827Q325.388 184.217 325.283 184.893L328.727 184.893Q328.625 184.23 328.156 183.833Q327.689 183.436 327.013 183.436ZM332.198 182.005L334.214 182.005L334.214 186.166L337.619 182.005L339.479 182.005L339.479 189L337.464 189L337.464 184.839L334.071 189L332.198 189L332.198 182.005ZM335.709 181.253Q333.42 181.253 333.408 179.237L334.734 179.237Q334.747 179.691 334.988 179.945Q335.229 180.199 335.696 180.199Q336.166 180.199 336.416 179.945Q336.67 179.691 336.67 179.237L338.022 179.237Q338.01 181.253 335.709 181.253Z" fill="#000000" fill-opacity="1.000000" fill-rule="evenodd"/>
	<rect id="Rectangle 19" x="493.500000" y="164.500000" rx="5.000000" width="219.000000" height="38.000000" fill="#FFFFFF" fill-opacity="1.000000"/>
	<rect id="Rectangle 19" x="493.500000" y="164.500000" rx="5.000000" width="219.000000" height="38.000000" stroke="#CCCCCC" stroke-opacity="1.000000" stroke-width="1.000000"/>
	<path id="Введите Ваш номер телефона" d="M499.928 143.306Q500.877 143.503 501.369 144.068Q501.865 144.633 501.865 145.543Q501.865 146.727 501.027 147.365Q500.189 148 498.564 148L494.533 148L494.533 138.901L498.316 138.901Q499.773 138.901 500.592 139.5Q501.411 140.097 501.411 141.227Q501.411 141.995 501.02 142.522Q500.63 143.046 499.928 143.306ZM495.482 143.02L498.265 143.02Q499.319 143.02 499.884 142.592Q500.449 142.163 500.449 141.344Q500.449 140.526 499.884 140.097Q499.319 139.666 498.265 139.666L495.482 139.666L495.482 143.02ZM498.564 147.232Q500.916 147.232 500.916 145.477Q500.916 143.763 498.564 143.763L495.482 143.763L495.482 147.232L498.564 147.232ZM508.405 144.464Q509.796 144.788 509.796 146.14Q509.796 147.038 509.132 147.521Q508.469 148 507.158 148L504.051 148L504.051 141.164L507.066 141.164Q508.237 141.164 508.897 141.617Q509.561 142.071 509.561 142.916Q509.561 143.477 509.256 143.874Q508.951 144.268 508.405 144.464ZM504.946 144.204L506.999 144.204Q507.793 144.204 508.215 143.906Q508.64 143.607 508.64 143.033Q508.64 142.462 508.215 142.176Q507.793 141.89 506.999 141.89L504.946 141.89L504.946 144.204ZM507.117 147.273Q508.002 147.273 508.444 146.988Q508.885 146.699 508.885 146.089Q508.885 145.477 508.482 145.185Q508.079 144.893 507.209 144.893L504.946 144.893L504.946 147.273L507.117 147.273ZM517.931 144.867L512.212 144.867Q512.291 145.934 513.031 146.591Q513.774 147.245 514.903 147.245Q515.541 147.245 516.075 147.019Q516.608 146.791 516.998 146.35L517.516 146.946Q517.062 147.492 516.379 147.778Q515.697 148.063 514.878 148.063Q513.824 148.063 513.012 147.616Q512.199 147.168 511.742 146.375Q511.288 145.582 511.288 144.582Q511.288 143.579 511.723 142.789Q512.161 141.995 512.92 141.554Q513.682 141.11 514.63 141.11Q515.579 141.11 516.332 141.554Q517.087 141.995 517.516 142.782Q517.947 143.566 517.947 144.582L517.931 144.867ZM514.63 141.903Q513.643 141.903 512.974 142.535Q512.304 143.163 512.212 144.179L517.062 144.179Q516.97 143.163 516.3 142.535Q515.63 141.903 514.63 141.903ZM526.514 147.194L526.514 149.65L525.645 149.65L525.645 148L519.519 148L519.519 149.65L518.649 149.65L518.649 147.194L519.04 147.194Q519.729 147.156 519.973 146.181Q520.22 145.204 520.312 143.449L520.405 141.164L525.448 141.164L525.448 147.194L526.514 147.194ZM521.157 143.503Q521.093 144.959 520.909 145.902Q520.728 146.842 520.262 147.194L524.524 147.194L524.524 141.982L521.236 141.982L521.157 143.503ZM528.309 141.164L529.233 141.164L529.233 146.597L533.793 141.164L534.612 141.164L534.612 148L533.689 148L533.689 142.566L529.141 148L528.309 148L528.309 141.164ZM542.061 141.982L539.475 141.982L539.475 148L538.551 148L538.551 141.982L535.964 141.982L535.964 141.164L542.061 141.164L542.061 141.982ZM549.066 144.867L543.347 144.867Q543.426 145.934 544.166 146.591Q544.909 147.245 546.038 147.245Q546.676 147.245 547.21 147.019Q547.743 146.791 548.133 146.35L548.651 146.946Q548.197 147.492 547.514 147.778Q546.832 148.063 546.013 148.063Q544.959 148.063 544.147 147.616Q543.334 147.168 542.877 146.375Q542.423 145.582 542.423 144.582Q542.423 143.579 542.858 142.789Q543.296 141.995 544.055 141.554Q544.817 141.11 545.766 141.11Q546.714 141.11 547.467 141.554Q548.222 141.995 548.651 142.782Q549.082 143.566 549.082 144.582L549.066 144.867ZM545.766 141.903Q544.778 141.903 544.109 142.535Q543.439 143.163 543.347 144.179L548.197 144.179Q548.105 143.163 547.435 142.535Q546.765 141.903 545.766 141.903ZM560.144 143.306Q561.093 143.503 561.585 144.068Q562.081 144.633 562.081 145.543Q562.081 146.727 561.243 147.365Q560.405 148 558.78 148L554.749 148L554.749 138.901L558.532 138.901Q559.989 138.901 560.808 139.5Q561.627 140.097 561.627 141.227Q561.627 141.995 561.236 142.522Q560.846 143.046 560.144 143.306ZM555.698 143.02L558.481 143.02Q559.535 143.02 560.1 142.592Q560.665 142.163 560.665 141.344Q560.665 140.526 560.1 140.097Q559.535 139.666 558.481 139.666L555.698 139.666L555.698 143.02ZM558.78 147.232Q561.132 147.232 561.132 145.477Q561.132 143.763 558.78 143.763L555.698 143.763L555.698 147.232L558.78 147.232ZM566.619 141.11Q567.958 141.11 568.672 141.779Q569.39 142.449 569.39 143.763L569.39 148L568.504 148L568.504 146.934Q568.193 147.467 567.587 147.765Q566.984 148.063 566.152 148.063Q565.006 148.063 564.33 147.518Q563.654 146.972 563.654 146.077Q563.654 145.204 564.286 144.671Q564.918 144.137 566.295 144.137L568.466 144.137L568.466 143.722Q568.466 142.839 567.971 142.379Q567.479 141.916 566.527 141.916Q565.879 141.916 565.279 142.132Q564.683 142.344 564.254 142.722L563.839 142.033Q564.356 141.592 565.083 141.351Q565.813 141.11 566.619 141.11ZM566.295 147.337Q567.076 147.337 567.634 146.981Q568.193 146.623 568.466 145.947L568.466 144.829L566.32 144.829Q564.565 144.829 564.565 146.051Q564.565 146.648 565.019 146.994Q565.476 147.337 566.295 147.337ZM581.282 141.164L581.282 148L571.846 148L571.846 141.164L572.77 141.164L572.77 147.194L576.121 147.194L576.121 141.164L577.045 141.164L577.045 147.194L580.361 147.194L580.361 141.164L581.282 141.164ZM587.329 141.164L588.253 141.164L588.253 144.191L592.553 144.191L592.553 141.164L593.477 141.164L593.477 148L592.553 148L592.553 144.985L588.253 144.985L588.253 148L587.329 148L587.329 141.164ZM598.922 148.063Q597.935 148.063 597.142 147.616Q596.348 147.168 595.891 146.375Q595.438 145.582 595.438 144.582Q595.438 143.579 595.891 142.789Q596.348 141.995 597.142 141.554Q597.935 141.11 598.922 141.11Q599.909 141.11 600.703 141.554Q601.496 141.995 601.944 142.789Q602.395 143.579 602.395 144.582Q602.395 145.582 601.944 146.375Q601.496 147.168 600.703 147.616Q599.909 148.063 598.922 148.063ZM598.922 147.245Q599.652 147.245 600.23 146.915Q600.808 146.584 601.131 145.975Q601.458 145.363 601.458 144.582Q601.458 143.801 601.131 143.192Q600.808 142.579 600.23 142.249Q599.652 141.916 598.922 141.916Q598.196 141.916 597.615 142.249Q597.037 142.579 596.704 143.192Q596.374 143.801 596.374 144.582Q596.374 145.363 596.704 145.975Q597.037 146.584 597.615 146.915Q598.196 147.245 598.922 147.245ZM612.015 141.164L612.015 148L611.17 148L611.17 142.592L608.4 147.168L607.984 147.168L605.216 142.579L605.216 148L604.372 148L604.372 141.164L605.308 141.164L608.206 146.089L611.158 141.164L612.015 141.164ZM620.618 144.867L614.899 144.867Q614.978 145.934 615.718 146.591Q616.461 147.245 617.59 147.245Q618.228 147.245 618.762 147.019Q619.295 146.791 619.685 146.35L620.203 146.946Q619.749 147.492 619.066 147.778Q618.384 148.063 617.565 148.063Q616.511 148.063 615.699 147.616Q614.886 147.168 614.429 146.375Q613.975 145.582 613.975 144.582Q613.975 143.579 614.41 142.789Q614.848 141.995 615.607 141.554Q616.369 141.11 617.318 141.11Q618.266 141.11 619.019 141.554Q619.774 141.995 620.203 142.782Q620.634 143.566 620.634 144.582L620.618 144.867ZM617.318 141.903Q616.33 141.903 615.661 142.535Q614.991 143.163 614.899 144.179L619.749 144.179Q619.657 143.163 618.987 142.535Q618.317 141.903 617.318 141.903ZM626.199 141.11Q627.161 141.11 627.938 141.548Q628.719 141.982 629.16 142.776Q629.604 143.566 629.604 144.582Q629.604 145.607 629.16 146.4Q628.719 147.194 627.945 147.629Q627.173 148.063 626.199 148.063Q625.364 148.063 624.695 147.721Q624.025 147.375 623.596 146.711L623.596 150.523L622.676 150.523L622.676 141.164L623.558 141.164L623.558 142.512Q623.974 141.836 624.656 141.475Q625.339 141.11 626.199 141.11ZM626.132 147.245Q626.846 147.245 627.43 146.915Q628.018 146.584 628.348 145.975Q628.681 145.363 628.681 144.582Q628.681 143.801 628.348 143.198Q628.018 142.592 627.43 142.255Q626.846 141.916 626.132 141.916Q625.405 141.916 624.825 142.255Q624.247 142.592 623.914 143.198Q623.584 143.801 623.584 144.582Q623.584 145.363 623.914 145.975Q624.247 146.584 624.825 146.915Q625.405 147.245 626.132 147.245ZM639.808 141.982L637.222 141.982L637.222 148L636.298 148L636.298 141.982L633.711 141.982L633.711 141.164L639.808 141.164L639.808 141.982ZM646.813 144.867L641.094 144.867Q641.173 145.934 641.913 146.591Q642.656 147.245 643.785 147.245Q644.423 147.245 644.957 147.019Q645.49 146.791 645.88 146.35L646.398 146.946Q645.944 147.492 645.261 147.778Q644.579 148.063 643.76 148.063Q642.706 148.063 641.894 147.616Q641.081 147.168 640.624 146.375Q640.17 145.582 640.17 144.582Q640.17 143.579 640.605 142.789Q641.043 141.995 641.802 141.554Q642.564 141.11 643.513 141.11Q644.461 141.11 645.214 141.554Q645.969 141.995 646.398 142.782Q646.829 143.566 646.829 144.582L646.813 144.867ZM643.513 141.903Q642.525 141.903 641.856 142.535Q641.186 143.163 641.094 144.179L645.944 144.179Q645.852 143.163 645.182 142.535Q644.512 141.903 643.513 141.903ZM654.317 141.164L654.317 148L653.393 148L653.393 141.982L650.118 141.982L650.026 143.671Q649.924 145.804 649.534 146.949Q649.144 148.092 648.141 148.092Q647.868 148.092 647.477 147.987L647.544 147.194Q647.779 147.245 647.868 147.245Q648.401 147.245 648.674 146.753Q648.947 146.258 649.039 145.531Q649.131 144.801 649.195 143.607L649.312 141.164L654.317 141.164ZM662.92 144.867L657.201 144.867Q657.28 145.934 658.02 146.591Q658.763 147.245 659.892 147.245Q660.53 147.245 661.064 147.019Q661.597 146.791 661.987 146.35L662.505 146.946Q662.051 147.492 661.368 147.778Q660.686 148.063 659.867 148.063Q658.813 148.063 658.001 147.616Q657.188 147.168 656.731 146.375Q656.277 145.582 656.277 144.582Q656.277 143.579 656.712 142.789Q657.15 141.995 657.909 141.554Q658.671 141.11 659.62 141.11Q660.568 141.11 661.321 141.554Q662.076 141.995 662.505 142.782Q662.936 143.566 662.936 144.582L662.92 144.867ZM659.62 141.903Q658.632 141.903 657.963 142.535Q657.293 143.163 657.201 144.179L662.051 144.179Q661.959 143.163 661.289 142.535Q660.619 141.903 659.62 141.903ZM673.233 144.569Q673.233 146.166 672.179 147.076Q671.126 147.987 669.202 148.063L669.202 150.523L668.304 150.523L668.304 148.079Q666.393 148 665.346 147.083Q664.302 146.166 664.302 144.569Q664.302 142.982 665.346 142.087Q666.393 141.189 668.304 141.11L668.304 138.355L669.202 138.355L669.202 141.11Q671.126 141.202 672.179 142.1Q673.233 142.995 673.233 144.569ZM665.21 144.569Q665.21 145.791 665.997 146.48Q666.784 147.168 668.304 147.26L668.304 141.928Q666.797 142.008 666.003 142.69Q665.21 143.373 665.21 144.569ZM669.202 147.26Q670.723 147.181 671.522 146.492Q672.322 145.804 672.322 144.569Q672.322 143.36 671.522 142.684Q670.723 142.008 669.202 141.928L669.202 147.26ZM678.001 148.063Q677.014 148.063 676.221 147.616Q675.427 147.168 674.97 146.375Q674.516 145.582 674.516 144.582Q674.516 143.579 674.97 142.789Q675.427 141.995 676.221 141.554Q677.014 141.11 678.001 141.11Q678.988 141.11 679.782 141.554Q680.575 141.995 681.023 142.789Q681.474 143.579 681.474 144.582Q681.474 145.582 681.023 146.375Q680.575 147.168 679.782 147.616Q678.988 148.063 678.001 148.063ZM678.001 147.245Q678.731 147.245 679.309 146.915Q679.887 146.584 680.21 145.975Q680.537 145.363 680.537 144.582Q680.537 143.801 680.21 143.192Q679.887 142.579 679.309 142.249Q678.731 141.916 678.001 141.916Q677.275 141.916 676.694 142.249Q676.116 142.579 675.783 143.192Q675.453 143.801 675.453 144.582Q675.453 145.363 675.783 145.975Q676.116 146.584 676.694 146.915Q677.275 147.245 678.001 147.245ZM683.451 141.164L684.375 141.164L684.375 144.191L688.675 144.191L688.675 141.164L689.599 141.164L689.599 148L688.675 148L688.675 144.985L684.375 144.985L684.375 148L683.451 148L683.451 141.164ZM694.578 141.11Q695.917 141.11 696.631 141.779Q697.349 142.449 697.349 143.763L697.349 148L696.463 148L696.463 146.934Q696.152 147.467 695.546 147.765Q694.943 148.063 694.111 148.063Q692.965 148.063 692.289 147.518Q691.613 146.972 691.613 146.077Q691.613 145.204 692.245 144.671Q692.877 144.137 694.254 144.137L696.425 144.137L696.425 143.722Q696.425 142.839 695.93 142.379Q695.438 141.916 694.486 141.916Q693.838 141.916 693.238 142.132Q692.642 142.344 692.213 142.722L691.797 142.033Q692.315 141.592 693.042 141.351Q693.772 141.11 694.578 141.11ZM694.254 147.337Q695.035 147.337 695.593 146.981Q696.152 146.623 696.425 145.947L696.425 144.829L694.279 144.829Q692.524 144.829 692.524 146.051Q692.524 146.648 692.978 146.994Q693.435 147.337 694.254 147.337Z" fill="#636363" fill-opacity="1.000000" fill-rule="evenodd"/>
	<path id="+8 (000) 000-00-00" d="M513.563 184.839L511.148 184.839L511.148 187.207L510.329 187.207L510.329 184.839L507.911 184.839L507.911 184.074L510.329 184.074L510.329 181.694L511.148 181.694L511.148 184.074L513.563 184.074L513.563 184.839ZM520.362 184.23Q521.223 184.515 521.683 185.087Q522.146 185.658 522.146 186.464Q522.146 187.258 521.714 187.851Q521.286 188.441 520.486 188.762Q519.686 189.079 518.61 189.079Q516.97 189.079 516.033 188.378Q515.1 187.673 515.1 186.464Q515.1 185.645 515.548 185.08Q515.995 184.515 516.855 184.23Q516.151 183.957 515.786 183.443Q515.424 182.928 515.424 182.227Q515.424 181.123 516.287 180.472Q517.154 179.821 518.61 179.821Q519.572 179.821 520.293 180.116Q521.013 180.408 521.416 180.954Q521.819 181.5 521.819 182.227Q521.819 182.928 521.442 183.443Q521.067 183.957 520.362 184.23ZM516.36 182.252Q516.36 183.008 516.957 183.449Q517.557 183.89 518.61 183.89Q519.661 183.89 520.264 183.449Q520.87 183.008 520.87 182.265Q520.87 181.5 520.251 181.059Q519.636 180.615 518.61 180.615Q517.569 180.615 516.963 181.059Q516.36 181.5 516.36 182.252ZM518.61 188.286Q519.817 188.286 520.499 187.791Q521.184 187.296 521.184 186.451Q521.184 185.607 520.499 185.122Q519.817 184.633 518.61 184.633Q517.414 184.633 516.732 185.122Q516.049 185.607 516.049 186.451Q516.049 187.312 516.725 187.8Q517.401 188.286 518.61 188.286ZM529.035 191.523Q528.308 190.327 527.917 188.775Q527.527 187.219 527.527 185.439Q527.527 183.658 527.917 182.091Q528.308 180.523 529.035 179.355L529.92 179.355Q529.152 180.666 528.793 182.176Q528.438 183.684 528.438 185.439Q528.438 187.194 528.793 188.702Q529.152 190.209 529.92 191.523L529.035 191.523ZM534.756 189.079Q533.702 189.079 532.877 188.521Q532.052 187.959 531.588 186.915Q531.128 185.867 531.128 184.449Q531.128 183.033 531.588 181.986Q532.052 180.938 532.877 180.38Q533.702 179.821 534.756 179.821Q535.809 179.821 536.635 180.38Q537.46 180.938 537.926 181.986Q538.396 183.033 538.396 184.449Q538.396 185.867 537.926 186.915Q537.46 187.959 536.635 188.521Q535.809 189.079 534.756 189.079ZM534.756 188.219Q535.549 188.219 536.152 187.778Q536.758 187.337 537.095 186.493Q537.434 185.645 537.434 184.449Q537.434 183.255 537.095 182.411Q536.758 181.564 536.152 181.123Q535.549 180.681 534.756 180.681Q533.962 180.681 533.356 181.123Q532.753 181.564 532.413 182.411Q532.077 183.255 532.077 184.449Q532.077 185.645 532.413 186.493Q532.753 187.337 533.356 187.778Q533.962 188.219 534.756 188.219ZM543.362 189.079Q542.308 189.079 541.483 188.521Q540.658 187.959 540.194 186.915Q539.734 185.867 539.734 184.449Q539.734 183.033 540.194 181.986Q540.658 180.938 541.483 180.38Q542.308 179.821 543.362 179.821Q544.415 179.821 545.241 180.38Q546.066 180.938 546.532 181.986Q547.002 183.033 547.002 184.449Q547.002 185.867 546.532 186.915Q546.066 187.959 545.241 188.521Q544.415 189.079 543.362 189.079ZM543.362 188.219Q544.155 188.219 544.758 187.778Q545.364 187.337 545.701 186.493Q546.04 185.645 546.04 184.449Q546.04 183.255 545.701 182.411Q545.364 181.564 544.758 181.123Q544.155 180.681 543.362 180.681Q542.568 180.681 541.962 181.123Q541.359 181.564 541.019 182.411Q540.683 183.255 540.683 184.449Q540.683 185.645 541.019 186.493Q541.359 187.337 541.962 187.778Q542.568 188.219 543.362 188.219ZM551.968 189.079Q550.914 189.079 550.089 188.521Q549.264 187.959 548.8 186.915Q548.34 185.867 548.34 184.449Q548.34 183.033 548.8 181.986Q549.264 180.938 550.089 180.38Q550.914 179.821 551.968 179.821Q553.021 179.821 553.847 180.38Q554.672 180.938 555.138 181.986Q555.608 183.033 555.608 184.449Q555.608 185.867 555.138 186.915Q554.672 187.959 553.847 188.521Q553.021 189.079 551.968 189.079ZM551.968 188.219Q552.761 188.219 553.364 187.778Q553.97 187.337 554.307 186.493Q554.646 185.645 554.646 184.449Q554.646 183.255 554.307 182.411Q553.97 181.564 553.364 181.123Q552.761 180.681 551.968 180.681Q551.174 180.681 550.568 181.123Q549.965 181.564 549.625 182.411Q549.289 183.255 549.289 184.449Q549.289 185.645 549.625 186.493Q549.965 187.337 550.568 187.778Q551.174 188.219 551.968 188.219ZM556.791 191.523Q557.559 190.209 557.92 188.708Q558.285 187.207 558.285 185.439Q558.285 183.671 557.92 182.17Q557.559 180.666 556.791 179.355L557.673 179.355Q558.403 180.523 558.8 182.091Q559.196 183.658 559.196 185.439Q559.196 187.219 558.806 188.781Q558.416 190.339 557.673 191.523L556.791 191.523ZM568.257 189.079Q567.203 189.079 566.378 188.521Q565.553 187.959 565.089 186.915Q564.629 185.867 564.629 184.449Q564.629 183.033 565.089 181.986Q565.553 180.938 566.378 180.38Q567.203 179.821 568.257 179.821Q569.31 179.821 570.136 180.38Q570.961 180.938 571.427 181.986Q571.897 183.033 571.897 184.449Q571.897 185.867 571.427 186.915Q570.961 187.959 570.136 188.521Q569.31 189.079 568.257 189.079ZM568.257 188.219Q569.05 188.219 569.653 187.778Q570.259 187.337 570.596 186.493Q570.935 185.645 570.935 184.449Q570.935 183.255 570.596 182.411Q570.259 181.564 569.653 181.123Q569.05 180.681 568.257 180.681Q567.463 180.681 566.857 181.123Q566.254 181.564 565.914 182.411Q565.578 183.255 565.578 184.449Q565.578 185.645 565.914 186.493Q566.254 187.337 566.857 187.778Q567.463 188.219 568.257 188.219ZM576.863 189.079Q575.809 189.079 574.984 188.521Q574.159 187.959 573.695 186.915Q573.235 185.867 573.235 184.449Q573.235 183.033 573.695 181.986Q574.159 180.938 574.984 180.38Q575.809 179.821 576.863 179.821Q577.916 179.821 578.742 180.38Q579.567 180.938 580.033 181.986Q580.503 183.033 580.503 184.449Q580.503 185.867 580.033 186.915Q579.567 187.959 578.742 188.521Q577.916 189.079 576.863 189.079ZM576.863 188.219Q577.656 188.219 578.259 187.778Q578.865 187.337 579.202 186.493Q579.541 185.645 579.541 184.449Q579.541 183.255 579.202 182.411Q578.865 181.564 578.259 181.123Q577.656 180.681 576.863 180.681Q576.069 180.681 575.463 181.123Q574.86 181.564 574.52 182.411Q574.184 183.255 574.184 184.449Q574.184 185.645 574.52 186.493Q574.86 187.337 575.463 187.778Q576.069 188.219 576.863 188.219ZM585.469 189.079Q584.415 189.079 583.59 188.521Q582.765 187.959 582.301 186.915Q581.841 185.867 581.841 184.449Q581.841 183.033 582.301 181.986Q582.765 180.938 583.59 180.38Q584.415 179.821 585.469 179.821Q586.522 179.821 587.348 180.38Q588.173 180.938 588.639 181.986Q589.109 183.033 589.109 184.449Q589.109 185.867 588.639 186.915Q588.173 187.959 587.348 188.521Q586.522 189.079 585.469 189.079ZM585.469 188.219Q586.262 188.219 586.865 187.778Q587.471 187.337 587.808 186.493Q588.147 185.645 588.147 184.449Q588.147 183.255 587.808 182.411Q587.471 181.564 586.865 181.123Q586.262 180.681 585.469 180.681Q584.675 180.681 584.069 181.123Q583.466 181.564 583.126 182.411Q582.79 183.255 582.79 184.449Q582.79 185.645 583.126 186.493Q583.466 187.337 584.069 187.778Q584.675 188.219 585.469 188.219ZM590.656 185.074L594.061 185.074L594.061 185.88L590.656 185.88L590.656 185.074ZM599.249 189.079Q598.195 189.079 597.37 188.521Q596.545 187.959 596.081 186.915Q595.621 185.867 595.621 184.449Q595.621 183.033 596.081 181.986Q596.545 180.938 597.37 180.38Q598.195 179.821 599.249 179.821Q600.302 179.821 601.128 180.38Q601.953 180.938 602.419 181.986Q602.889 183.033 602.889 184.449Q602.889 185.867 602.419 186.915Q601.953 187.959 601.128 188.521Q600.302 189.079 599.249 189.079ZM599.249 188.219Q600.042 188.219 600.645 187.778Q601.251 187.337 601.588 186.493Q601.927 185.645 601.927 184.449Q601.927 183.255 601.588 182.411Q601.251 181.564 600.645 181.123Q600.042 180.681 599.249 180.681Q598.455 180.681 597.849 181.123Q597.246 181.564 596.906 182.411Q596.57 183.255 596.57 184.449Q596.57 185.645 596.906 186.493Q597.246 187.337 597.849 187.778Q598.455 188.219 599.249 188.219ZM607.855 189.079Q606.801 189.079 605.976 188.521Q605.151 187.959 604.687 186.915Q604.227 185.867 604.227 184.449Q604.227 183.033 604.687 181.986Q605.151 180.938 605.976 180.38Q606.801 179.821 607.855 179.821Q608.908 179.821 609.734 180.38Q610.559 180.938 611.025 181.986Q611.495 183.033 611.495 184.449Q611.495 185.867 611.025 186.915Q610.559 187.959 609.734 188.521Q608.908 189.079 607.855 189.079ZM607.855 188.219Q608.648 188.219 609.251 187.778Q609.857 187.337 610.194 186.493Q610.533 185.645 610.533 184.449Q610.533 183.255 610.194 182.411Q609.857 181.564 609.251 181.123Q608.648 180.681 607.855 180.681Q607.061 180.681 606.455 181.123Q605.852 181.564 605.512 182.411Q605.176 183.255 605.176 184.449Q605.176 185.645 605.512 186.493Q605.852 187.337 606.455 187.778Q607.061 188.219 607.855 188.219ZM613.042 185.074L616.447 185.074L616.447 185.88L613.042 185.88L613.042 185.074ZM621.635 189.079Q620.581 189.079 619.756 188.521Q618.931 187.959 618.467 186.915Q618.007 185.867 618.007 184.449Q618.007 183.033 618.467 181.986Q618.931 180.938 619.756 180.38Q620.581 179.821 621.635 179.821Q622.688 179.821 623.514 180.38Q624.339 180.938 624.805 181.986Q625.275 183.033 625.275 184.449Q625.275 185.867 624.805 186.915Q624.339 187.959 623.514 188.521Q622.688 189.079 621.635 189.079ZM621.635 188.219Q622.428 188.219 623.031 187.778Q623.637 187.337 623.974 186.493Q624.313 185.645 624.313 184.449Q624.313 183.255 623.974 182.411Q623.637 181.564 623.031 181.123Q622.428 180.681 621.635 180.681Q620.841 180.681 620.235 181.123Q619.632 181.564 619.292 182.411Q618.956 183.255 618.956 184.449Q618.956 185.645 619.292 186.493Q619.632 187.337 620.235 187.778Q620.841 188.219 621.635 188.219ZM630.241 189.079Q629.187 189.079 628.362 188.521Q627.537 187.959 627.073 186.915Q626.613 185.867 626.613 184.449Q626.613 183.033 627.073 181.986Q627.537 180.938 628.362 180.38Q629.187 179.821 630.241 179.821Q631.294 179.821 632.12 180.38Q632.945 180.938 633.411 181.986Q633.881 183.033 633.881 184.449Q633.881 185.867 633.411 186.915Q632.945 187.959 632.12 188.521Q631.294 189.079 630.241 189.079ZM630.241 188.219Q631.034 188.219 631.637 187.778Q632.243 187.337 632.58 186.493Q632.919 185.645 632.919 184.449Q632.919 183.255 632.58 182.411Q632.243 181.564 631.637 181.123Q631.034 180.681 630.241 180.681Q629.447 180.681 628.841 181.123Q628.238 181.564 627.898 182.411Q627.562 183.255 627.562 184.449Q627.562 185.645 627.898 186.493Q628.238 187.337 628.841 187.778Q629.447 188.219 630.241 188.219Z" fill="#000000" fill-opacity="1.000000" fill-rule="evenodd"/>
	<rect id="button" x="769.000000" y="164.000000" rx="5.000000" width="220.000000" height="39.000000" fill="#4285F4" fill-opacity="1.000000"/>
	<path id="Отправить на Watsapp" d="M792.475 189.156Q791.056 189.156 789.917 188.546Q788.781 187.934 788.136 186.861Q787.495 185.788 787.495 184.449Q787.495 183.113 788.136 182.04Q788.781 180.967 789.917 180.358Q791.056 179.745 792.475 179.745Q793.89 179.745 795.02 180.358Q796.153 180.967 796.801 182.04Q797.451 183.113 797.451 184.449Q797.451 185.788 796.801 186.861Q796.153 187.934 795.02 188.546Q793.89 189.156 792.475 189.156ZM792.475 187.362Q793.278 187.362 793.928 186.991Q794.579 186.62 794.95 185.959Q795.322 185.296 795.322 184.449Q795.322 183.604 794.95 182.941Q794.579 182.278 793.928 181.91Q793.278 181.538 792.475 181.538Q791.669 181.538 791.018 181.91Q790.367 182.278 789.996 182.941Q789.625 183.604 789.625 184.449Q789.625 185.296 789.996 185.959Q790.367 186.62 791.018 186.991Q791.669 187.362 792.475 187.362ZM805.903 181.615L802.989 181.615L802.989 189L800.91 189L800.91 181.615L798.01 181.615L798.01 179.901L805.903 179.901L805.903 181.615ZM815.523 179.901L815.523 189L813.429 189L813.429 181.615L809.322 181.615L809.322 189L807.227 189L807.227 179.901L815.523 179.901ZM821.722 179.901Q822.931 179.901 823.82 180.304Q824.711 180.707 825.191 181.449Q825.673 182.189 825.673 183.201Q825.673 184.204 825.191 184.953Q824.711 185.699 823.82 186.096Q822.931 186.49 821.722 186.49L819.89 186.49L819.89 189L817.783 189L817.783 179.901L821.722 179.901ZM821.604 184.776Q822.553 184.776 823.045 184.366Q823.54 183.957 823.54 183.201Q823.54 182.437 823.045 182.027Q822.553 181.615 821.604 181.615L819.89 181.615L819.89 184.776L821.604 184.776ZM832.773 187.051L828.549 187.051L827.743 189L825.585 189L829.641 179.901L831.72 179.901L835.789 189L833.58 189L832.773 187.051ZM832.11 185.452L830.669 181.967L829.225 185.452L832.11 185.452ZM843.303 184.255Q844.135 184.503 844.576 185.061Q845.02 185.62 845.02 186.439Q845.02 187.648 844.103 188.324Q843.186 189 841.482 189L836.997 189L836.997 179.901L841.237 179.901Q842.821 179.901 843.703 180.513Q844.589 181.123 844.589 182.252Q844.589 182.928 844.249 183.443Q843.913 183.957 843.303 184.255ZM839.092 183.671L841.053 183.671Q841.742 183.671 842.094 183.392Q842.446 183.113 842.446 182.563Q842.446 182.033 842.088 181.748Q841.729 181.459 841.053 181.459L839.092 181.459L839.092 183.671ZM841.405 187.438Q842.888 187.438 842.888 186.271Q842.888 185.137 841.405 185.137L839.092 185.137L839.092 187.438L841.405 187.438ZM846.682 179.901L848.777 179.901L848.777 185.829L853.118 179.901L855.093 179.901L855.093 189L853.014 189L853.014 183.084L848.672 189L846.682 189L846.682 179.901ZM864.312 181.615L861.398 181.615L861.398 189L859.319 189L859.319 181.615L856.419 181.615L856.419 179.901L864.312 179.901L864.312 181.615ZM870.044 182.89Q871.707 182.89 872.596 183.633Q873.488 184.373 873.488 185.829Q873.488 187.375 872.507 188.188Q871.526 189 869.746 189L865.636 189L865.636 179.901L867.731 179.901L867.731 182.89L870.044 182.89ZM869.629 187.438Q870.447 187.438 870.908 187.039Q871.371 186.635 871.371 185.867Q871.371 184.449 869.629 184.449L867.731 184.449L867.731 187.438L869.629 187.438ZM887.035 179.901L887.035 189L884.928 189L884.928 185.268L880.795 185.268L880.795 189L878.688 189L878.688 179.901L880.795 179.901L880.795 183.487L884.928 183.487L884.928 179.901L887.035 179.901ZM895.472 187.051L891.248 187.051L890.442 189L888.284 189L892.34 179.901L894.419 179.901L898.488 189L896.279 189L895.472 187.051ZM894.809 185.452L893.368 181.967L891.924 185.452L894.809 185.452ZM917.079 179.901L914.102 189L911.839 189L909.837 182.836L907.771 189L905.52 189L902.531 179.901L904.714 179.901L906.768 186.296L908.913 179.901L910.865 179.901L912.944 186.347L915.064 179.901L917.079 179.901ZM923.941 187.051L919.717 187.051L918.911 189L916.753 189L920.809 179.901L922.888 179.901L926.956 189L924.747 189L923.941 187.051ZM923.278 185.452L921.837 181.967L920.393 185.452L923.278 185.452ZM929.337 181.615L926.424 181.615L926.424 179.901L934.355 179.901L934.355 181.615L931.442 181.615L931.442 189L929.337 189L929.337 181.615ZM938.411 189.156Q937.332 189.156 936.323 188.864Q935.316 188.572 934.707 188.102L935.421 186.518Q936.005 186.947 936.811 187.207Q937.617 187.467 938.424 187.467Q939.322 187.467 939.75 187.2Q940.179 186.934 940.179 186.49Q940.179 186.166 939.925 185.953Q939.671 185.737 939.274 185.607Q938.881 185.477 938.205 185.322Q937.164 185.074 936.5 184.826Q935.837 184.579 935.361 184.033Q934.888 183.487 934.888 182.579Q934.888 181.786 935.316 181.142Q935.745 180.497 936.608 180.123Q937.475 179.745 938.722 179.745Q939.595 179.745 940.426 179.955Q941.258 180.161 941.883 180.551L941.232 182.148Q939.972 181.434 938.709 181.434Q937.827 181.434 937.402 181.719Q936.979 182.005 936.979 182.475Q936.979 182.941 937.468 183.17Q937.957 183.398 938.957 183.617Q939.998 183.865 940.661 184.112Q941.324 184.36 941.797 184.893Q942.273 185.426 942.273 186.334Q942.273 187.115 941.835 187.759Q941.401 188.403 940.528 188.781Q939.658 189.156 938.411 189.156ZM949.707 187.051L945.483 187.051L944.677 189L942.519 189L946.575 179.901L948.654 179.901L952.722 189L950.513 189L949.707 187.051ZM949.044 185.452L947.603 181.967L946.159 185.452L949.044 185.452ZM957.612 179.901Q958.821 179.901 959.71 180.304Q960.602 180.707 961.081 181.449Q961.563 182.189 961.563 183.201Q961.563 184.204 961.081 184.953Q960.602 185.699 959.71 186.096Q958.821 186.49 957.612 186.49L955.781 186.49L955.781 189L953.673 189L953.673 179.901L957.612 179.901ZM957.494 184.776Q958.443 184.776 958.935 184.366Q959.43 183.957 959.43 183.201Q959.43 182.437 958.935 182.027Q958.443 181.615 957.494 181.615L955.781 181.615L955.781 184.776L957.494 184.776ZM966.998 179.901Q968.207 179.901 969.096 180.304Q969.988 180.707 970.467 181.449Q970.949 182.189 970.949 183.201Q970.949 184.204 970.467 184.953Q969.988 185.699 969.096 186.096Q968.207 186.49 966.998 186.49L965.167 186.49L965.167 189L963.059 189L963.059 179.901L966.998 179.901ZM966.88 184.776Q967.829 184.776 968.321 184.366Q968.816 183.957 968.816 183.201Q968.816 182.437 968.321 182.027Q967.829 181.615 966.88 181.615L965.167 181.615L965.167 184.776L966.88 184.776Z" fill="#FFFFFF" fill-opacity="1.000000" fill-rule="evenodd"/>
</svg>
