<svg width="71.000000" height="71.000000" viewBox="0 0 71 71" fill="none" xmlns="http://www.w3.org/2000/svg" xmlns:xlink="http://www.w3.org/1999/xlink">
	<desc>
			Created with Pixso.
	</desc>
	<defs>
		<clipPath id="clip3_312">
			<rect width="71.000000" height="71.000000" fill="white" fill-opacity="0"/>
		</clipPath>
	</defs>
	<rect width="71.000000" height="71.000000" fill="#FFFFFF" fill-opacity="0"/>
	<g clip-path="url(#clip3_312)">
		<path d="M65.5109 0.332764C65.8322 0.531494 66.0975 0.809082 66.2816 1.13916C66.4656 1.46924 66.5623 1.84082 66.5625 2.21875L66.5625 68.7812C66.5625 69.3696 66.3287 69.9341 65.9126 70.3501C65.4966 70.7661 64.9323 71 64.3438 71L51.0312 71C50.4427 71 49.8784 70.7661 49.4624 70.3501C49.0463 69.9341 48.8125 69.3696 48.8125 68.7812L48.8125 62.125L44.375 62.125L44.375 68.7812C44.375 69.3696 44.1412 69.9341 43.7251 70.3501C43.3091 70.7661 42.7448 71 42.1562 71L2.21875 71C1.63025 71 1.06592 70.7661 0.649902 70.3501C0.233765 69.9341 0 69.3696 0 68.7812L0 44.375C0.000366211 43.9094 0.147095 43.4558 0.419434 43.0784C0.691772 42.7009 1.07605 42.4187 1.51758 42.2715L26.625 33.9023L26.625 19.9688C26.625 19.5571 26.7396 19.1533 26.9559 18.8032C27.1721 18.4529 27.4817 18.1697 27.8497 17.9851L63.3497 0.235107C63.6884 0.0656738 64.0647 -0.0144043 64.443 0.00268555C64.8213 0.0197754 65.1888 0.133545 65.5109 0.332764ZM26.625 38.5796L4.4375 45.9724L4.4375 66.5625L26.625 66.5625L26.625 38.5796ZM31.0625 66.5625L39.9375 66.5625L39.9375 59.9062C39.9375 59.3179 40.1713 58.7534 40.5874 58.3374C41.0034 57.9211 41.5677 57.6875 42.1562 57.6875L51.0312 57.6875C51.6198 57.6875 52.1841 57.9211 52.6001 58.3374C53.0162 58.7534 53.25 59.3179 53.25 59.9062L53.25 66.5625L62.125 66.5625L62.125 5.80859L31.0625 21.3398L31.0625 66.5625Z" fill="#FFFFFF" fill-opacity="1.000000" fill-rule="evenodd"/>
		<path d="M8.875 48.8125L13.3125 48.8125L13.3125 53.25L8.875 53.25L8.875 48.8125ZM17.75 48.8125L22.1875 48.8125L22.1875 53.25L17.75 53.25L17.75 48.8125ZM8.875 57.6875L13.3125 57.6875L13.3125 62.125L8.875 62.125L8.875 57.6875ZM17.75 57.6875L22.1875 57.6875L22.1875 62.125L17.75 62.125L17.75 57.6875ZM35.5 39.9375L39.9375 39.9375L39.9375 44.375L35.5 44.375L35.5 39.9375ZM44.375 39.9375L48.8125 39.9375L48.8125 44.375L44.375 44.375L44.375 39.9375ZM35.5 48.8125L39.9375 48.8125L39.9375 53.25L35.5 53.25L35.5 48.8125ZM44.375 48.8125L48.8125 48.8125L48.8125 53.25L44.375 53.25L44.375 48.8125ZM53.25 39.9375L57.6875 39.9375L57.6875 44.375L53.25 44.375L53.25 39.9375ZM53.25 48.8125L57.6875 48.8125L57.6875 53.25L53.25 53.25L53.25 48.8125ZM35.5 31.0625L39.9375 31.0625L39.9375 35.5L35.5 35.5L35.5 31.0625ZM44.375 31.0625L48.8125 31.0625L48.8125 35.5L44.375 35.5L44.375 31.0625ZM53.25 31.0625L57.6875 31.0625L57.6875 35.5L53.25 35.5L53.25 31.0625ZM35.5 22.1875L39.9375 22.1875L39.9375 26.625L35.5 26.625L35.5 22.1875ZM44.375 22.1875L48.8125 22.1875L48.8125 26.625L44.375 26.625L44.375 22.1875ZM53.25 22.1875L57.6875 22.1875L57.6875 26.625L53.25 26.625L53.25 22.1875ZM53.25 13.3125L57.6875 13.3125L57.6875 17.75L53.25 17.75L53.25 13.3125Z" fill="#FFFFFF" fill-opacity="1.000000" fill-rule="nonzero"/>
	</g>
</svg>
